<svg width="103" height="84" viewBox="0 0 103 84" fill="none" xmlns="http://www.w3.org/2000/svg">
    <path d="M85.7702 62.983C85.7504 63.2109 85.724 63.4387 85.6843 63.6644C85.7592 64.1466 85.7966 64.6333 85.7966 65.1266C85.7966 75.1235 70.374 83.2267 51.349 83.2267C32.3262 83.2267 16.9036 75.1235 16.9036 65.1266C16.9036 64.6333 16.941 64.1466 17.0159 63.6644C16.9762 63.4387 16.9498 63.2109 16.93 62.983C16.9124 62.7618 16.9036 62.5406 16.9036 62.3194V44.4561L29.4548 51.1545L46.6236 60.3196C49.6161 61.9168 53.2009 61.9212 56.1977 60.3328L73.3951 51.2209L85.7966 44.6507V62.3194C85.7966 62.5406 85.7878 62.7618 85.7702 62.983Z" fill="#44A798"/>
    <path d="M14.3733 60.158C13.8954 61.388 13.2613 62.5582 12.6645 63.7395C12.5963 63.8767 11.8013 65.7482 11.4622 66.5247C11.0769 67.4051 10.6343 68.2634 10.1873 69.1151C10.0926 69.2965 9.85481 69.5222 9.68966 69.5155C9.47166 69.5089 9.16118 69.343 9.0665 69.1549C7.59779 66.2172 6.15109 63.2683 4.711 60.3151C4.12968 59.1294 5.30994 57.2468 5.27911 57.2158C5.72831 56.2004 6.12907 55.1585 6.64213 54.1763C7.09133 53.318 7.32694 52.4663 7.32034 51.4819C7.28731 45.0467 7.29832 31.9749 7.30052 25.5397C7.30052 25.2543 7.33135 24.9712 7.35557 24.542C8.74281 25.2233 10.042 25.8273 11.2905 26.5153C11.4953 26.6281 11.5767 27.117 11.5767 27.4333C11.5922 33.3088 11.5657 45.8209 11.6164 51.6942C11.6208 52.4796 11.8872 53.3047 12.2065 54.0347C12.8693 55.5434 13.7061 56.9769 14.3556 58.49C14.5582 58.9679 14.5626 59.6713 14.3733 60.158Z" fill="#006156"/>
    <path d="M100.9 30.4335L55.3606 54.5617C52.8988 55.8669 49.9548 55.8624 47.4974 54.5506L2.09274 30.3162C-0.311809 29.0332 -0.272173 25.5601 2.16101 24.3323L47.5943 1.3987C49.968 0.20191 52.7645 0.199698 55.1382 1.39648L100.84 24.4407C103.276 25.6729 103.311 29.1549 100.9 30.4335Z" fill="#006156"/>
</svg>
