<svg width="106" height="14" viewBox="0 0 106 14" fill="none" xmlns="http://www.w3.org/2000/svg">
<path fill-rule="evenodd" clip-rule="evenodd" d="M1 8.00005H102.865L99.232 12.3601C98.878 12.7841 98.936 13.4151 99.36 13.7681C99.785 14.1221 100.415 14.0641 100.769 13.6401L105.769 7.64005C105.808 7.59305 105.827 7.53805 105.856 7.48605C105.88 7.44405 105.909 7.40805 105.927 7.36205C105.972 7.24705 105.999 7.12605 105.999 7.00405L106 7.00004L105.999 6.99604C105.999 6.87404 105.972 6.75304 105.927 6.63804C105.909 6.59204 105.88 6.55604 105.856 6.51404C105.827 6.46204 105.808 6.40704 105.769 6.36004L100.769 0.360002C100.57 0.123001 100.286 0 100 0C99.774 0 99.547 0.0760005 99.36 0.232001C98.936 0.585004 98.878 1.21601 99.232 1.64001L102.865 6.00004H1C0.448 6.00004 0 6.44804 0 7.00004C0 7.55205 0.448 8.00005 1 8.00005Z" fill="#006156"/>
</svg>
