<?xml version="1.0" encoding="utf-8"?>
<!-- Generator: Adobe Illustrator 22.0.1, SVG Export Plug-In . SVG Version: 6.00 Build 0)  -->
<svg version="1.1" id="Layer_1" xmlns="http://www.w3.org/2000/svg" xmlns:xlink="http://www.w3.org/1999/xlink" x="0px" y="0px"
	 viewBox="0 0 184 67.7" style="enable-background:new 0 0 184 67.7;" xml:space="preserve">
<style type="text/css">
	.st0{fill:#FED011;}
</style>
<path class="st0" d="M167.8,47.9c0,0-0.5-0.6-1.4-1.8c-1-1.2-2.3-2.9-4.1-5c-1-0.9-1.9-2.1-3.2-3.2c-1.1-1.2-2.3-2.5-3.8-3.7
	c-1.5-1.3-3-2.6-4.6-4c-1.7-1.4-3.6-2.7-5.4-3.9c-3.9-2.7-8.2-5.3-13.2-7.7c-4.8-2.4-10.1-4.7-15.7-6.3l-2.1-0.7l-2.2-0.6
	c-1.4-0.3-2.9-0.7-4.3-1.1c-1.4-0.5-3-0.5-4.4-0.9c-1.5-0.3-3-0.5-4.5-0.8C96.1,7.8,93,7.5,90,7.3l-4.6-0.1
	c-1.6-0.1-3.1-0.1-4.6,0.1c-3.1,0.2-6.2,0.2-9.2,0.9c-1.4,0.2-3,0.5-4.5,0.6c-1.4,0.2-2.9,0.6-4.5,0.9c-1.5,0.4-2.9,0.6-4.3,1
	c-1.5,0.4-2.8,0.9-4.3,1.3l-2.1,0.6l-0.6,0.1L51,12.8c0.1-0.1,0,0,0,0l-0.1,0.1l-1,0.3c-1.4,0.6-2.9,1-4.2,1.6
	c-5.1,2.1-10.1,4.8-14.3,7.6c-4.4,2.9-8.2,5.8-11.2,8.9c-3.2,3.2-6,6.1-7.9,9.1c-0.3,0.3-0.5,0.8-0.8,1.1c-0.2,0.3-0.5,0.8-0.7,1
	c-0.5,0.8-0.8,1.4-1.4,2.1c-0.7,1.4-1.4,2.6-2,3.8c-0.4,1.2-0.9,2.2-1.4,3.3c-0.4,0.9-0.6,1.8-0.9,2.5c-0.5,1.3-0.8,2.1-0.8,2.1
	L4,56.5c-0.3,1-1.6,1.6-2.7,1.2c-0.8-0.3-1.4-1.2-1.4-2c0,0,0.1-0.9,0.1-2.5c0.1-1.6,0.5-3.8,1.1-6.9c0.5-1.4,0.9-3,1.6-4.7
	c0.4-0.9,0.7-1.7,1.1-2.6C4,38.5,4.3,38,4.6,37.5c0.3-0.5,0.4-0.9,0.7-1.4c1.9-3.7,4.7-7.7,8.1-11.4c3.6-3.4,7.8-7,12.6-10.3
	c4.9-3.2,10.3-6.1,16.4-8.3c1.6-0.6,2.9-1,4.4-1.5l1-0.3l0.4-0.2l0.3-0.1l0.7,0l2.3-0.6c1.5-0.4,3.2-0.8,4.7-1.2
	c1.6-0.3,3.1-0.6,4.8-0.9c1.6-0.3,3.3-0.6,4.9-0.8c1.6-0.1,3.3-0.3,5-0.3c3.3-0.3,6.6-0.1,9.8-0.2c1.7,0,3.3,0.2,4.9,0.3l4.9,0.5
	c3.3,0.4,6.5,1,9.7,1.6c1.6,0.4,3.1,0.8,4.7,1.1c1.6,0.4,3.1,0.7,4.6,1.3c1.4,0.5,3,0.9,4.4,1.4l2.2,0.6l2.1,0.8
	c2.8,1.2,5.7,2.1,8.4,3.3c2.7,1.2,5.3,2.3,7.7,3.8c4.9,2.6,9.5,5.5,13.3,8.4c1.9,1.4,3.8,2.9,5.6,4.2c1.6,1.4,3.3,2.8,4.7,4.2
	c1.5,1.3,2.9,2.7,4,3.8c1.2,1.3,2.4,2.4,3.4,3.4c1.9,2.1,3.2,3.9,4.2,4.9c1,1.2,1.6,1.8,1.6,1.8c0.8,0.8,0.6,2.3-0.3,2.9
	C170,49.1,168.7,48.9,167.8,47.9C167.9,48.1,167.9,48.1,167.8,47.9z"/>
<path class="st0" d="M180.8,37.6c-0.3,0.5-0.5,1.1-0.7,1.7l-0.5,1.4c-0.3,1-0.5,2.1-0.6,3.2c-0.1,1.1-0.1,2.1-0.3,3.2
	c0,1,0.1,2.2,0.2,3.1c0.2,1.1,0.3,2,0.6,3.1c0.2,1.1,0.7,2,1,3.1c0.3,1,0.8,2,1.3,2.9c0.5,1,1.1,1.8,1.5,2.7c1,1.7,0.6,4-1.1,5
	c-0.9,0.6-2,0.7-3.1,0.4l-0.9-0.4l-5.6-2c-1.8-0.6-3.8-1.4-5.6-2c-1.9-0.7-3.7-1.6-5.4-2.6c-1-0.5-1.7-1-2.5-1.6
	c-0.3-0.3-0.8-0.6-1.4-1c-0.1-0.1-0.3-0.2-0.1-0.1c0.1-0.1,0.3,0,1-0.3c0.4-0.2,0.8-0.5,0.9-1c0.3-0.7,0.1-0.2,0.2-0.3l-0.1-0.3
	c0.1-0.4,0.1-0.9,0.1-1.2c-0.1-0.6-0.4-0.8-0.7-1c-0.5-0.3-0.7-0.3-1.2-0.4c-0.3,0-0.8-0.1-1.6,0.6c-0.2,0.3-0.3,0.5-0.5,0.8
	c-0.1,0.2-0.1,0.4-0.1,0.5c-0.1,0.2,0,0.3,0.1,0.5c0.1,0.1,0.1,0.1,0.1,0.3c-0.3-1,0.1-2.3,1.2-2.7c1-0.3,2.3,0.1,2.7,1.2
	c0.1,0.1,0.1,0.3,0.1,0.3c0.1,0.1,0.1,0.1,0.1,0.5c-0.1,0.2,0,0.3-0.1,0.8c-0.1,0.2-0.2,0.6-0.5,0.8c-1,0.8-1.4,0.7-1.8,0.8
	c-0.7,0-1-0.2-1.6-0.5c-0.3-0.2-0.6-0.5-0.8-1.3c-0.1-0.3-0.1-0.8,0.1-1.2l0.1-0.2c0.1-0.2-0.2,0.3,0.1-0.4c0.3-0.5,0.7-1,1.2-1.3
	c1-0.5,1.5-0.4,1.8-0.4c0.5,0.1,0.5-0.1,0.7,0c0.6-0.1,1.2-0.1,1.6-0.1c1.2-0.1,2.3,0.1,3.3,0.2c2.2,0.3,4.3,0.7,6.3,1.6
	c2.1,0.7,4,1.8,5.8,2.7c1.9,1.1,3.7,2.2,5.6,3.5l-5.4,4.9c-0.3-1.2-0.7-2.4-0.8-3.7l-0.3-1.9l-0.2-1.8l-0.2-1.8l-0.1-1.8l-0.1-1.8
	l-0.1-1.8c0.1-1.2,0.1-2.5,0.2-3.7c0.1-1.2,0.2-2.3,0.4-3.6c0.3-1.2,0.3-2.4,0.6-3.6l0.5-1.8c0.1-0.5,0.3-1.2,0.3-1.7
	c0.3-1.2,1.3-1.9,2.5-1.6c1.2,0.3,1.9,1.3,1.6,2.5C180.9,37.4,180.8,37.6,180.8,37.6z"/>
</svg>
