<svg xmlns="http://www.w3.org/2000/svg" xmlns:xlink="http://www.w3.org/1999/xlink" width="523" height="462" viewBox="0 0 523 462">
    <defs>
        <linearGradient id="b" x1="100%" x2="0%" y1="100%" y2="0%">
            <stop offset="0%" stop-color="#60A2F0"/>
            <stop offset="100%" stop-color="#00ABFF"/>
        </linearGradient>
        <circle id="a" cx="270" cy="235" r="192"/>
        <filter id="c" width="107.8%" height="107.8%" x="-3.9%" y="-3.9%" filterUnits="objectBoundingBox">
            <feGaussianBlur in="SourceAlpha" result="shadowBlurInner1" stdDeviation="15"/>
            <feOffset in="shadowBlurInner1" result="shadowOffsetInner1"/>
            <feComposite in="shadowOffsetInner1" in2="SourceAlpha" k2="-1" k3="1" operator="arithmetic" result="shadowInnerInner1"/>
            <feColorMatrix in="shadowInnerInner1" values="0 0 0 0 0 0 0 0 0 0.533333333 0 0 0 0 0.8 0 0 0 1 0"/>
        </filter>
        <radialGradient id="d" cx="49.933%" cy="49.769%" r="105.342%" fx="49.933%" fy="49.769%" gradientTransform="matrix(.47897 0 0 1 .26 0)">
            <stop offset="4%" stop-color="#002EFF"/>
            <stop offset="100%" stop-color="#0069CA"/>
        </radialGradient>
        <path id="e" d="M.295 280.254V0H171.13v270.846a33.232 33.232 0 0 1-.998 10.035c-2.075 7.853-10.216 14.675-24.422 20.468-16.68 6.842-36.819 10.272-60.416 10.291-23.597.019-43.723-3.402-60.376-10.263-14.318-5.815-22.525-12.856-24.622-21.123z"/>
        <linearGradient id="f" x1="1.602%" x2="120.387%" y1="50%" y2="50%">
            <stop offset="4%" stop-color="#0FF"/>
            <stop offset="59%" stop-color="#0FF"/>
            <stop offset="100%" stop-color="#0FF"/>
        </linearGradient>
        <linearGradient id="g" x1="124.932%" x2="124.932%" y1="-.852%" y2="102.007%">
            <stop offset="4%" stop-color="#0FF"/>
            <stop offset="100%" stop-color="#00A4E2"/>
        </linearGradient>
        <linearGradient id="h" x1="124.932%" x2="124.932%" y1="-1.933%" y2="100.622%">
            <stop offset="4%" stop-color="#0FF"/>
            <stop offset="100%" stop-color="#00B5EC"/>
        </linearGradient>
        <linearGradient id="i" x1="124.932%" x2="124.932%" y1="-1.933%" y2="100.622%">
            <stop offset="4%" stop-color="#0FF"/>
            <stop offset="100%" stop-color="#00A4E2"/>
        </linearGradient>
        <linearGradient id="j" x1="124.932%" x2="124.932%" y1="-1.933%" y2="100.622%">
            <stop offset="4%" stop-color="#0FF"/>
            <stop offset="100%" stop-color="#D9FFFF"/>
        </linearGradient>
        <linearGradient id="k" x1="44.306%" x2="44.306%" y1="92.521%" y2="10.381%">
            <stop offset="0%" stop-color="#00C2FF"/>
            <stop offset="51%" stop-color="#007EED"/>
            <stop offset="100%" stop-color="#004097"/>
        </linearGradient>
        <linearGradient id="l" x1="46.855%" x2="46.855%" y1="84.71%" y2="7.862%">
            <stop offset="0%" stop-color="#00C7FF"/>
            <stop offset="51%" stop-color="#08F"/>
            <stop offset="100%" stop-color="#004DB5"/>
        </linearGradient>
        <linearGradient id="m" x1="-.172%" x2="99.709%" y1="49.907%" y2="49.907%">
            <stop offset="37%" stop-color="#0097DD"/>
            <stop offset="99%" stop-color="#3FF"/>
        </linearGradient>
        <linearGradient id="n" x1="124.932%" x2="124.932%" y1="-1.933%" y2="100.622%">
            <stop offset="4%" stop-color="#0FF"/>
            <stop offset="100%" stop-color="#00A4E2"/>
        </linearGradient>
        <linearGradient id="o" x1="45.252%" x2="49.772%" y1="56.643%" y2="46.938%">
            <stop offset="14%" stop-color="#FF0"/>
            <stop offset="91%" stop-color="#F90"/>
        </linearGradient>
        <linearGradient id="p" x1="53.345%" x2="49.481%" y1="86.408%" y2="30.543%">
            <stop offset="14%" stop-color="#FF0"/>
            <stop offset="91%" stop-color="#FFAF00"/>
        </linearGradient>
        <linearGradient id="q" x1="112.536%" x2="99.786%" y1="-31.927%" y2="-52.292%">
            <stop offset="14%" stop-color="#FF0"/>
            <stop offset="91%" stop-color="#FFAF00"/>
        </linearGradient>
        <linearGradient id="r" x1="43.045%" x2="48.29%" y1="87.264%" y2="31.497%">
            <stop offset="14%" stop-color="#FF0"/>
            <stop offset="91%" stop-color="#F90"/>
        </linearGradient>
        <path id="s" d="M20.942.04c9.735.007 18.109 6.886 20.003 16.432 1.894 9.545-3.22 19.099-12.215 22.82-8.994 3.72-19.366.573-24.773-7.52a20.396 20.396 0 0 1 2.54-25.756A19.66 19.66 0 0 1 20.942.04z"/>
        <radialGradient id="t" cx="56.752%" cy="54.47%" r="51.143%" fx="56.752%" fy="54.47%" gradientTransform="matrix(.99975 0 0 1 0 0)">
            <stop offset="0%" stop-color="#58E8E8"/>
            <stop offset="55%" stop-color="#FFF"/>
            <stop offset="100%" stop-color="#FF0"/>
        </radialGradient>
        <filter id="u" width="181.3%" height="181.3%" x="-40.6%" y="-40.6%" filterUnits="objectBoundingBox">
            <feGaussianBlur in="SourceGraphic" stdDeviation="5.527"/>
        </filter>
        <linearGradient id="v" x1="43.82%" x2="51.73%" y1="63.408%" y2="24.058%">
            <stop offset="14%" stop-color="#FFB28F"/>
            <stop offset="91%" stop-color="#CE7C56"/>
        </linearGradient>
        <linearGradient id="w" x1="31.697%" x2="59.054%" y1="55.676%" y2="27.751%">
            <stop offset="14%" stop-color="#FFB28F"/>
            <stop offset="91%" stop-color="#FFE4D9"/>
        </linearGradient>
        <linearGradient id="x" x1="46.575%" x2="58.101%" y1="9.486%" y2="89.535%">
            <stop offset="37%" stop-color="#00A8E3"/>
            <stop offset="99%" stop-color="#3FF"/>
        </linearGradient>
        <linearGradient id="y" x1="45.827%" x2="53.82%" y1="67.575%" y2="28.113%">
            <stop offset="14%" stop-color="#FFB28F"/>
            <stop offset="91%" stop-color="#CE7C56"/>
        </linearGradient>
        <linearGradient id="z" x1="33.934%" x2="61.495%" y1="60.316%" y2="32.299%">
            <stop offset="14%" stop-color="#FFB28F"/>
            <stop offset="91%" stop-color="#FFE4D9"/>
        </linearGradient>
        <linearGradient id="C" x1="50%" x2="50%" y1="0%" y2="100%">
            <stop offset="0%" stop-color="#FFF" stop-opacity=".5"/>
            <stop offset="100%" stop-color="#E3E3E3"/>
        </linearGradient>
        <ellipse id="B" cx="34.228" cy="33.651" rx="33.452" ry="33.459"/>
        <filter id="A" width="215.1%" height="215.1%" x="-57.5%" y="-54.5%" filterUnits="objectBoundingBox">
            <feOffset dy="2" in="SourceAlpha" result="shadowOffsetOuter1"/>
            <feGaussianBlur in="shadowOffsetOuter1" result="shadowBlurOuter1" stdDeviation="12.5"/>
            <feColorMatrix in="shadowBlurOuter1" values="0 0 0 0 0.804569129 0 0 0 0 0.935369318 0 0 0 0 1 0 0 0 1 0"/>
        </filter>
        <linearGradient id="D" x1="50%" x2="50%" y1="0%" y2="100%">
            <stop offset="0%" stop-color="#F8DF00"/>
            <stop offset="14%" stop-color="#FCE900"/>
            <stop offset="30%" stop-color="#FFEF00"/>
            <stop offset="100%" stop-color="#F3A700"/>
        </linearGradient>
        <linearGradient id="E" x1="55.042%" x2="55.042%" y1="100%" y2="0%">
            <stop offset="0%" stop-color="#7BCBF0"/>
            <stop offset="100%" stop-color="#D7F5FE"/>
        </linearGradient>
    </defs>
    <g fill="none" fill-rule="evenodd">
        <g fill-rule="nonzero" transform="translate(23)">
            <use fill="#60A2F0" xlink:href="#a"/>
            <use fill="url(#b)" xlink:href="#a"/>
            <use fill="#000" filter="url(#c)" xlink:href="#a"/>
        </g>
        <path fill="url(#d)" d="M162.573 237.76c38.367 0 71.103 6.488 98.206 19.467 27.104 12.978 40.671 28.653 40.703 47.025 0 18.372-13.568 34.063-40.703 47.073-27.135 13.01-59.857 19.5-98.166 19.468-38.362 0-71.1-6.49-98.214-19.468-27.114-12.978-40.669-28.67-40.664-47.073 0-18.367 13.568-34.042 40.704-47.025 27.135-12.984 59.846-19.473 98.134-19.468z" style="mix-blend-mode:overlay" transform="translate(127 34)"/>
        <path fill="#E2F6FF" d="M344.602 46.606c14.174 8.202 21.259 18.1 21.253 29.696-.005 11.595-7.09 21.494-21.253 29.696-14.18 8.202-31.29 12.3-51.334 12.295-20.043-.006-37.157-4.104-51.342-12.295-14.163-8.202-21.242-18.106-21.237-29.712.005-11.606 7.084-21.5 21.237-29.68 14.18-8.202 31.289-12.3 51.326-12.295 20.038.005 37.154 4.104 51.35 12.295z" opacity=".1"/>
        <path fill="#FFF" d="M293.268 34.184c20.096 0 37.253 4.114 51.47 12.342 14.216 8.229 21.33 18.149 21.34 29.76 0 11.622-7.113 21.547-21.34 29.776-14.228 8.228-31.384 12.342-51.47 12.342-20.09 0-37.245-4.114-51.461-12.342-14.217-8.229-21.33-18.154-21.342-29.776 0-11.627 7.114-21.553 21.342-29.776 14.227-8.223 31.38-12.332 51.461-12.326zm51.334 12.422c-14.18-8.202-31.29-12.3-51.334-12.295-20.043.005-37.157 4.104-51.342 12.295-14.163 8.202-21.242 18.095-21.237 29.68.005 11.585 7.084 21.489 21.237 29.712 14.18 8.202 31.289 12.3 51.326 12.295 20.038-.006 37.149-4.104 51.334-12.295 14.174-8.202 21.259-18.1 21.253-29.696-.005-11.595-7.084-21.494-21.237-29.696z" opacity=".25"/>
        <path fill="#1387FF" d="M361.178 297.458c19.655 11.266 29.482 24.829 29.482 40.69 0 15.861-9.827 29.465-29.482 40.81-19.686 11.26-43.4 16.872-71.142 16.835-27.742-.037-51.454-5.649-71.135-16.835-19.66-11.26-29.49-24.86-29.49-40.802 0-15.94 9.844-29.504 29.53-40.69 19.633-11.287 43.332-16.93 71.095-16.93 27.763 0 51.477 5.64 71.142 16.922z" style="mix-blend-mode:multiply"/>
        <path fill="url(#f)" d="M.295 280.254V0H171.13v270.846a33.232 33.232 0 0 1-.998 10.035c-2.075 7.853-10.216 14.675-24.422 20.468-16.68 6.842-36.819 10.272-60.416 10.291-23.597.019-43.723-3.402-60.376-10.263-14.318-5.815-22.525-12.856-24.622-21.123z" style="mix-blend-mode:multiply" transform="translate(204.416 75.488)"/>
        <path fill="#56FFFF" d="M354.554 301.28c17.84 10.223 26.76 22.53 26.76 36.924 0 14.393-8.92 26.739-26.76 37.036-17.84 10.218-39.354 15.31-64.542 15.28-25.188-.033-46.705-5.126-64.55-15.28-17.84-10.223-26.758-22.566-26.753-37.028.006-14.462 8.923-26.773 26.753-36.932 17.834-10.224 39.351-15.348 64.55-15.375 25.199-.027 46.713 5.098 64.542 15.375z" style="mix-blend-mode:overlay"/>
        <path fill="#FFF" d="M349.981 303.825c16.58 9.494 24.869 20.93 24.869 34.307 0 13.378-8.29 24.85-24.869 34.42-16.584 9.494-36.585 14.228-60.001 14.201-23.416-.026-43.425-4.755-60.025-14.186-16.585-9.5-24.877-20.972-24.877-34.419 0-13.446 8.292-24.882 24.877-34.307 16.58-9.505 36.58-14.271 60.001-14.298 23.422-.026 43.43 4.734 60.025 14.282z"/>
        <path fill="url(#g)" fill-rule="nonzero" d="M126.587 31.994h2.809V147.25h-2.81z" transform="translate(127 34)"/>
        <path fill="url(#h)" fill-rule="nonzero" d="M88.238 131.494h2.81v73.146h-2.81z" transform="translate(127 34)"/>
        <path fill="#008BF8" d="M219.675 157.73a4.159 4.159 0 0 0-3.008-1.228 4.183 4.183 0 0 0-4.23 4.236 4.212 4.212 0 0 0 1.22 3.008 4.127 4.127 0 0 0 3.01 1.229 4.199 4.199 0 0 0 4.237-4.237 4.068 4.068 0 0 0-1.229-3.008zm-1.053 1.014c.552.515.86 1.24.846 1.994a2.784 2.784 0 0 1-4.789 1.947 2.664 2.664 0 0 1-.798-1.947 2.752 2.752 0 0 1 2.793-2.8 2.682 2.682 0 0 1 1.948.806z"/>
        <path fill="#0FF" d="M215.82 159.893a1.19 1.19 0 0 1 2.036.845c.008.316-.113.622-.336.846a1.245 1.245 0 0 1-1.7 0 1.157 1.157 0 0 1-.335-.846 1.14 1.14 0 0 1 .336-.845zm2.802-1.15a2.818 2.818 0 0 0-3.943 0 2.72 2.72 0 0 0-.798 1.995c-.012.731.276 1.435.798 1.947a2.818 2.818 0 0 0 4.789-1.947 2.664 2.664 0 0 0-.846-1.994z"/>
        <path fill="#FFF" d="M215.82 159.893a1.14 1.14 0 0 0-.335.845c-.008.316.113.622.336.846a1.245 1.245 0 0 0 1.7 0c.222-.224.343-.53.335-.846a1.197 1.197 0 0 0-2.035-.845z"/>
        <path fill="url(#i)" fill-rule="nonzero" d="M235.926 107.997h2.81v73.147h-2.81z" transform="translate(127 34)"/>
        <path fill="#008BF8" d="M366.31 157.826c.552.515.86 1.24.846 1.995a2.784 2.784 0 0 1-4.788 1.947 2.664 2.664 0 0 1-.798-1.947 2.752 2.752 0 0 1 2.793-2.8 2.682 2.682 0 0 1 1.947.805zm1.054-1.013a4.159 4.159 0 0 0-3.01-1.229 4.183 4.183 0 0 0-4.23 4.237 4.212 4.212 0 0 0 1.222 3.008 4.127 4.127 0 0 0 3.009 1.22 4.199 4.199 0 0 0 4.238-4.236 4.068 4.068 0 0 0-1.23-3z"/>
        <path fill="#0FF" d="M366.31 157.826a2.818 2.818 0 0 0-3.942 0 2.72 2.72 0 0 0-.798 1.995c-.013.73.276 1.435.798 1.947a2.818 2.818 0 0 0 4.788-1.947 2.664 2.664 0 0 0-.846-1.995zm-2.801 1.15a1.19 1.19 0 0 1 2.035.845c.009.316-.113.621-.335.846a1.245 1.245 0 0 1-1.7 0 1.157 1.157 0 0 1-.335-.846 1.14 1.14 0 0 1 .335-.846z"/>
        <path fill="#FFF" d="M363.509 158.975a1.14 1.14 0 0 0-.335.846c-.009.316.112.621.335.846a1.245 1.245 0 0 0 1.7 0c.222-.225.344-.53.335-.846a1.197 1.197 0 0 0-2.035-.846z"/>
        <path fill="#0FF" d="M226.882 242.949a2.738 2.738 0 0 0-2.801 2.792c-.012.731.276 1.435.798 1.947.513.555 1.24.863 1.995.846a2.897 2.897 0 0 0 2.794-2.793 2.809 2.809 0 0 0-2.794-2.792h.008zm0 1.595c.318-.009.625.116.846.344.224.223.346.53.335.845a1.189 1.189 0 0 1-2.027.846 1.133 1.133 0 0 1-.343-.846 1.173 1.173 0 0 1 1.19-1.189z"/>
        <path fill="#FFF" d="M226.882 244.552a1.173 1.173 0 0 0-1.189 1.19c-.01.317.115.624.343.845.223.226.529.35.846.343a1.157 1.157 0 0 0 1.181-1.189 1.14 1.14 0 0 0-.335-.845 1.133 1.133 0 0 0-.846-.344z"/>
        <path fill="#0FF" d="M226.882 237.452c.318-.01.625.115.846.343.224.223.346.53.335.845a1.189 1.189 0 0 1-2.027.846 1.133 1.133 0 0 1-.343-.846 1.173 1.173 0 0 1 1.19-1.188zm0-1.596a2.738 2.738 0 0 0-2.801 2.792c-.012.731.276 1.435.798 1.947.513.555 1.24.863 1.995.846a2.897 2.897 0 0 0 2.794-2.793 2.809 2.809 0 0 0-2.794-2.792h.008z"/>
        <path fill="#FFF" d="M226.882 237.452a1.173 1.173 0 0 0-1.189 1.188c-.01.318.115.625.343.846.223.226.529.35.846.343a1.157 1.157 0 0 0 1.181-1.189 1.14 1.14 0 0 0-.335-.845 1.133 1.133 0 0 0-.846-.343z"/>
        <path fill="#0FF" d="M226.882 219.572a2.738 2.738 0 0 0-2.801 2.792c-.012.731.276 1.435.798 1.947.513.555 1.24.863 1.995.846a2.897 2.897 0 0 0 2.794-2.793 2.809 2.809 0 0 0-2.794-2.792h.008zm-.846 1.923a1.15 1.15 0 0 1 .846-.343 1.197 1.197 0 1 1 0 2.393 1.15 1.15 0 0 1-.846-.343 1.212 1.212 0 0 1 0-1.691v-.016z"/>
        <path fill="#FFF" d="M226.036 221.495a1.212 1.212 0 0 0 0 1.691c.223.226.529.35.846.343a1.197 1.197 0 1 0 0-2.393 1.15 1.15 0 0 0-.846.359z"/>
        <path fill="url(#i)" fill-rule="nonzero" d="M104.838 59.208h2.81v73.147h-2.81z" transform="translate(127 34)"/>
        <path fill="#FFF" d="M293.228 231.412c33.834 0 62.73 6.939 86.69 20.816 23.879 13.797 35.827 30.44 35.842 49.93.016 19.488-11.92 36.166-35.81 50.032-23.975 13.83-52.872 20.744-86.69 20.744s-62.736-6.914-86.753-20.744c-23.842-13.829-35.768-30.507-35.78-50.033-.01-19.526 11.938-36.18 35.844-49.961 23.953-13.856 52.84-20.784 86.657-20.784zm-87.216 20.122c-24.21 13.978-36.308 30.863-36.298 50.655.01 19.792 12.094 36.68 36.25 50.664 24.113 13.94 53.212 20.92 87.296 20.935 34.084.016 63.17-6.962 87.256-20.935 24.183-14.005 36.266-30.893 36.25-50.664-.016-19.77-12.12-36.656-36.313-50.655-24.04-13.963-53.114-20.944-87.225-20.944-34.11 0-63.183 6.981-87.216 20.944z" opacity=".25"/>
        <path fill="url(#j)" fill-rule="nonzero" d="M119.005 181.599h2.809v73.146h-2.81z" transform="translate(127 34)"/>
        <path fill="#008BF8" d="M247.433 206.647a4.183 4.183 0 0 0-4.23 4.236 4.212 4.212 0 0 0 1.221 3.008 4.127 4.127 0 0 0 3.01 1.22 4.199 4.199 0 0 0 4.237-4.236 4.068 4.068 0 0 0-1.229-3.008 4.159 4.159 0 0 0-3.009-1.22zm1.956 2.242c.55.515.858 1.24.846 1.994a2.784 2.784 0 0 1-4.789 1.947 2.664 2.664 0 0 1-.798-1.947 2.728 2.728 0 0 1 .798-1.994 2.818 2.818 0 0 1 3.943 0z"/>
        <path fill="#0FF" d="M246.587 210.038a1.19 1.19 0 0 1 2.035.845c.009.316-.112.622-.335.846a1.245 1.245 0 0 1-1.7 0 1.157 1.157 0 0 1-.335-.846 1.14 1.14 0 0 1 .335-.845zm2.802-1.15a2.818 2.818 0 0 0-3.943 0 2.728 2.728 0 0 0-.798 1.995c-.012.731.276 1.435.798 1.947a2.818 2.818 0 0 0 4.789-1.947 2.672 2.672 0 0 0-.846-1.994z"/>
        <path fill="#FFF" d="M246.587 210.038a1.14 1.14 0 0 0-.335.845c-.008.316.113.622.335.846a1.245 1.245 0 0 0 1.7 0c.223-.224.344-.53.335-.846a1.197 1.197 0 0 0-2.035-.845z"/>
        <path fill="#9FF" d="M390.908 294.897v-31.763a166.936 166.936 0 0 0 18.571-9.23c14.898-8.618 25.907-18.165 33.026-28.644v31.755c-7.087 10.478-18.096 20.031-33.026 28.659a166.936 166.936 0 0 1-18.571 9.223zM210.393 159.478a168.422 168.422 0 0 0-22.49 10.835c-9.928 5.744-18.13 11.9-24.605 18.47v-31.779c6.475-6.563 14.677-12.725 24.605-18.486a167.424 167.424 0 0 1 22.49-10.835v31.795zM350.747 141.71v-31.803a174.224 174.224 0 0 1 43.896 17.753c1.032.6 2.043 1.199 3.033 1.795v31.77c-.99-.606-2.001-1.207-3.033-1.803a174.528 174.528 0 0 0-43.896-17.712zM417.429 168.653a46.745 46.745 0 0 0 7.262-20.489v50.815c-1.851 18.085-14.089 33.667-36.712 46.746a147.273 147.273 0 0 1-27.718 12.32v-50.808a147.32 147.32 0 0 0 27.718-12.335c13.546-7.856 23.363-16.606 29.45-26.249zM189.946 236.063a116.78 116.78 0 0 0 8.093 4.26v41.17a119.255 119.255 0 0 1-8.093-4.26c-19.984-11.553-29.974-25.487-29.969-41.8 0-1.237.056-2.465.168-3.67v-33.837a37.946 37.946 0 0 0 5.89 16.907c4.948 7.797 12.919 14.874 23.911 21.23zM246.132 55.486V92.06c-14.312 2.372-27.124 6.832-38.436 13.38a81.105 81.105 0 0 0-9.202 6.111V74.994a83.603 83.603 0 0 1 9.218-6.128c11.306-6.542 24.113-11.002 38.42-13.38zM371.402 78.257v35.105l-.407-.207c-11.344-5.607-24.254-8.854-38.732-9.742V68.308c14.483.898 27.396 4.146 38.74 9.741l.4.208zM186.794 40.542v45.534c-21.283 9.095-36.255 18.92-44.917 29.472a39.713 39.713 0 0 0-7.694 14.058V84.081c4.634-16.005 22.171-30.518 52.61-43.539z" opacity=".44"/>
        <path fill="#9CD2FF" d="M431.42 69.903v45.533c-7.03-8.127-17.099-15.1-30.209-20.92a143.882 143.882 0 0 0-28.356-9.127V39.872A143.882 143.882 0 0 1 401.21 49c13.105 5.819 23.174 12.786 30.208 20.903z" opacity=".44"/>
        <path fill="#0FF" d="M426.67 178.858c.257.103.48.274.647.494.16.197.25.441.256.694v48.869a.803.803 0 0 1-.192.558c-13.158 13.93-33.475 25.17-60.951 33.717a284.301 284.301 0 0 1-34.15 8.274c-.283.05-.575.017-.839-.096a1.596 1.596 0 0 1-.71-.47 1.07 1.07 0 0 1-.264-.695v-48.956a.847.847 0 0 1 .2-.566.958.958 0 0 1 .583-.28 281.803 281.803 0 0 0 33.887-8.217c27.082-8.394 47.107-19.45 60.073-33.167.175-.174.402-.286.646-.319.281-.02.562.036.814.16zm-1.683 4.156c-13.17 12.83-32.688 23.263-58.557 31.3a285.906 285.906 0 0 1-33.369 8.138v46.586a281.57 281.57 0 0 0 32.076-7.882c26.954-8.394 46.907-19.407 59.857-33.04l-.007-45.102z"/>
        <path fill="#008BF8" d="M233.147 81.344a4.183 4.183 0 0 0-4.23 4.237 4.212 4.212 0 0 0 1.221 3.008 4.127 4.127 0 0 0 3.01 1.26 4.199 4.199 0 0 0 4.237-4.236 4.068 4.068 0 0 0-1.229-3.008 4.159 4.159 0 0 0-3.009-1.26zm1.956 2.242c.551.515.859 1.24.846 1.995a2.784 2.784 0 0 1-4.789 1.947 2.664 2.664 0 0 1-.798-1.947 2.752 2.752 0 0 1 2.793-2.8 2.682 2.682 0 0 1 1.948.805z" opacity=".637" style="mix-blend-mode:multiply"/>
        <path fill="#0FF" d="M232.301 84.735a1.19 1.19 0 0 1 2.035.846c.009.316-.112.621-.335.846a1.245 1.245 0 0 1-1.7 0 1.157 1.157 0 0 1-.335-.846 1.14 1.14 0 0 1 .335-.846zm2.802-1.149a2.818 2.818 0 0 0-3.943 0 2.72 2.72 0 0 0-.798 1.995c-.012.73.276 1.435.798 1.947a2.818 2.818 0 0 0 4.789-1.947 2.664 2.664 0 0 0-.846-1.995z" style="mix-blend-mode:multiply"/>
        <path fill="#FFF" d="M232.301 84.735a1.14 1.14 0 0 0-.335.846c-.008.316.113.621.335.846a1.245 1.245 0 0 0 1.7 0c.223-.225.344-.53.335-.846a1.197 1.197 0 0 0-2.035-.846z"/>
        <path fill="#000" d="M249.564 336.64a9.406 9.406 0 0 0 3.28 5.952 13.21 13.21 0 0 0 6.162 3.072 3.297 3.297 0 0 0 3.192-1.245 14.416 14.416 0 0 0 1.868-3.191 31.785 31.785 0 0 0 1.26-8.904c.008-3.02.275-6.034.799-9.008l.072-.582c-1.916.77-4.01.983-6.042.614a11.063 11.063 0 0 1-5.459-2.633c-.176.575-1.163 3.197-2.961 7.867a34.22 34.22 0 0 0-2.17 8.058z"/>
        <path fill="url(#k)" d="M177.601 176.732a24.372 24.372 0 0 0 7.303-1.764c.686-.31 1.333-.63 1.947-.957a20.87 20.87 0 0 0 4.054-2.896 5.64 5.64 0 0 0 2.578-4.34c.072-2.394.168-4.19.288-5.29l.103-.184c-.037.874-.002 1.75.104 2.617a19.99 19.99 0 0 0 2.02 7.061 27.64 27.64 0 0 1 2.186 5.649 78.716 78.716 0 0 1 1.125 31.268 575.878 575.878 0 0 1-6.177 31.626c-2 8.91-3.112 17.998-3.32 27.127-.048 2.33-.064 4.66-.064 6.99a8.287 8.287 0 0 1-.463 2.68 20.124 20.124 0 0 1-10.24 3.247c-4.043.117-7.291-1.12-9.744-3.71a12.403 12.403 0 0 1-1.022-5.082c.024-1.251.117-2.5.28-3.742.637-4.938.885-9.919.742-14.896a74.49 74.49 0 0 1 3.99-26.329c.144-.542.256-1.085.352-1.595.138-.547.245-1.1.319-1.66.857-4.533.688-9.2-.495-13.66a73.487 73.487 0 0 0 2.434-9.214 99.03 99.03 0 0 0 1.7-22.946z" transform="translate(127 34)"/>
        <path fill="url(#l)" d="M177.601 176.732a99.03 99.03 0 0 1-1.7 22.906 73.487 73.487 0 0 1-2.434 9.215c-1.931 4.468-4.698 11.22-8.3 20.257a110.887 110.887 0 0 1-6.345 12.638 49.534 49.534 0 0 0-5.292 9.423 170.025 170.025 0 0 0-2.122 5.226 147.183 147.183 0 0 0-3.193 9.247 213.06 213.06 0 0 0-2.713 9.877 55.51 55.51 0 0 1-1.772 5.76 29.748 29.748 0 0 1-2.682 5.506 5.906 5.906 0 0 1-2.713 2.186 8.941 8.941 0 0 1-5.228.351 10.824 10.824 0 0 1-5.435-2.609 4.357 4.357 0 0 1-1.876-2.114c-.38-.9-.3-1.93.216-2.76a67.682 67.682 0 0 0 3.743-11.37c.351-1.452 1.176-5.38 2.474-11.784.99-4.851 1.942-8.745 2.857-11.68a50.64 50.64 0 0 1 4.837-10.98 37.126 37.126 0 0 0 4.629-10.483 60.533 60.533 0 0 0 2.155-8.824 567.545 567.545 0 0 0 3.56-25.627 78.434 78.434 0 0 1 7.597-25.803c0 1.371.107 2.74.32 4.093a4.428 4.428 0 0 0 2.226 3.192 26.543 26.543 0 0 0 15.531 4.276l1.66-.12z" transform="translate(127 34)"/>
        <path fill="#E2F6FF" d="M284.968 94.764c-43.316 0-80.294 8.872-110.936 26.616-30.6 17.68-45.899 39-45.899 63.956 0 24.957 15.279 46.297 45.835 64.02 30.7 17.706 67.7 26.557 111 26.552 43.3-.005 80.297-8.856 110.992-26.552 30.54-17.707 45.821-39.047 45.842-64.02.022-24.973-15.26-46.291-45.842-63.956-30.68-17.728-67.677-26.6-110.992-26.616z" opacity=".1"/>
        <path fill="#FFF" d="M284.968 94.764c43.31 0 80.289 8.872 110.936 26.616 30.572 17.68 45.861 39 45.867 63.956.005 24.957-15.265 46.297-45.811 64.02-30.695 17.706-67.693 26.557-110.992 26.552-43.3-.005-80.3-8.856-111-26.552-30.535-17.702-45.813-39.042-45.835-64.02-.021-24.978 15.268-46.296 45.867-63.956 30.663-17.728 67.652-26.6 110.968-26.616zm-111.566 25.89C142.467 138.494 127 160.066 127 185.368s15.457 46.874 46.37 64.714c30.806 17.824 68.006 26.738 111.598 26.743 43.592.006 80.792-8.92 111.598-26.775 30.913-17.867 46.37-39.438 46.37-64.714 0-25.276-15.467-46.836-46.402-64.682-30.79-17.85-67.98-26.775-111.566-26.775-43.587 0-80.776 8.925-111.566 26.775z" opacity=".25"/>
        <path fill="#000" d="M326.716 315.53c-.279-.136-2.099-.966-5.443-2.474a24.616 24.616 0 0 1-4.948-2.777 19.957 19.957 0 0 1-10.231 3.248c-4.065.117-7.314-1.117-9.745-3.702a4.243 4.243 0 0 0-.351 2.792 7.124 7.124 0 0 0 1.197 2.601c1.532 1.979 4.192 3.335 7.98 4.069 2.06.367 3.6.662 4.614.902 1.507.31 2.957.848 4.302 1.595a41.738 41.738 0 0 0 7.725 3.758 19.407 19.407 0 0 0 8.46 1.11 2.977 2.977 0 0 0 1.804-.95c.48-.521.892-1.1 1.229-1.724a8.424 8.424 0 0 0-2.107-5.178 15.323 15.323 0 0 0-4.486-3.27z"/>
        <path fill="#452312" d="M379.024 169.634a4.786 4.786 0 0 1-.878-1.938 16.95 16.95 0 0 1-.447-4.692c0-2.127.713-3.069 2.139-2.824.466.442.903.914 1.309 1.412a33.5 33.5 0 0 1 .144 4.476 7.977 7.977 0 0 1-1.413 4.165 4.158 4.158 0 0 1-.854-.599z"/>
        <path fill="url(#m)" d="M333.558 160.368a1.636 1.636 0 0 1-2.921.798 1.595 1.595 0 0 1-.343-1.205c.071-.567.135-1.157.207-1.747.2-2.059.303-4.141.311-6.272-.111-26.797-16.605-49.7-49.482-68.71-29.407-17.021-64.175-26.497-104.303-28.428a1.596 1.596 0 0 1-1.134-.55 1.595 1.595 0 0 1-.43-1.189c.026-.436.224-.843.55-1.133a1.596 1.596 0 0 1 1.19-.423c40.697 1.979 75.957 11.6 105.78 28.866 34.126 19.75 51.152 43.605 51.078 71.567a68.62 68.62 0 0 1-.312 6.583c-.056.702-.143 1.284-.191 1.843z" transform="translate(127 34)"/>
        <path fill="url(#n)" fill-rule="nonzero" d="M195.064 22.037h2.809V86h-2.81z" transform="translate(127 34)"/>
        <path fill="#FFF" d="M322.646 41.252a1.14 1.14 0 0 0-.335.846c-.009.316.113.622.335.846a1.245 1.245 0 0 0 1.7 0c.223-.224.344-.53.335-.846a1.197 1.197 0 0 0-2.035-.846z"/>
        <path fill="#FFAA83" d="M397.053 164.967h-.24c.081.812.494 1.554 1.142 2.05a2.912 2.912 0 0 1 1.133 2.011 6.327 6.327 0 0 1-1.5 1.74 1.883 1.883 0 0 0 .878-1.74c-.04-.215-.104-.343-.192-.375a2.307 2.307 0 0 0-.343-.056.59.59 0 0 0-.16.232.559.559 0 0 1-.367.239 2.618 2.618 0 0 0-.966.798 3.351 3.351 0 0 1-.997 1.021l-.264.136a1.18 1.18 0 0 0 0-.168 5.918 5.918 0 0 0-.111-.798 3.318 3.318 0 0 0-.168-.502c.402-.232.744-.554.998-.942.2-.255.479-.654.846-1.197l-.104-.31h-.064c-.654-.038-1.548-.628-2.681-1.772a5.219 5.219 0 0 0-.407-.375c.087-.04.135-.072.151-.112a.455.455 0 0 1 0-.207c-.175-.208-.207-.335-.104-.4.83.129 2.02.368 3.52.727zm-4.932 7.284l-.24-.08a14.28 14.28 0 0 1-1.372-.662.878.878 0 0 0 .43-.35 3.12 3.12 0 0 0 .376-.615 4.717 4.717 0 0 0 2.13 1.269c-.431.173-.874.32-1.324.438zm16.56-7.475c-1.348.263-4.214.103-8.571-.487a62.59 62.59 0 0 0-8.101-.798v.367c.056.239.178.457.351.63a2.178 2.178 0 0 1-.223-.263c-.08-.136-.152-.24-.2-.311a1.07 1.07 0 0 1-.191.287 43.683 43.683 0 0 0 2.506 5.673l.183.95a1.892 1.892 0 0 1-.646.294c-.798.152-1.764-.702-2.897-2.577-1.134-1.875-2.027-2.752-2.586-2.64a6.29 6.29 0 0 1-3.95-.798c-.998-.463-1.47-.511-1.39-.144.278.696.709 1.32 1.262 1.827.59.633 1.189 1.231 1.795 1.795a10.94 10.94 0 0 1 1.35 1.708l.837-.064c-.144 0-.942.072-2.394.223-.378.02-.756.02-1.134 0a49.102 49.102 0 0 1-1.795-1.907c-1.341-1.532-2.107-2.768-2.299-3.726a6.142 6.142 0 0 1 .24-2.816c.595.012 1.19-.023 1.78-.104.486.2 1.18.471 2.082.798 2.076.755 3.326 1.09 3.752 1.005a4.03 4.03 0 0 0 2.314-1.683c.297-.408.664-.76 1.085-1.037 3.599.076 7.171.631 10.623 1.651.375.096 2.339.798 5.882 2.003l.335.144zm-30.982-3.99v.567c-.03 1.431.109 2.861.415 4.26l1.365 2.394-1.66.383c-.798.2-1.389.375-1.884.526a406.75 406.75 0 0 1-7.9 2.777l-2.172-11.17c3.57.223 7.516.32 11.836.287v-.024z"/>
        <path fill="#FFE1D4" d="M408.681 164.776a3.48 3.48 0 0 0 .647-.192c.009.144-.013.288-.064.423l-.08.143a.43.43 0 0 1-.04.088 1.492 1.492 0 0 1-1.093.75c-.7.155-1.424.155-2.123 0a53.636 53.636 0 0 1-2.107-.423 52.124 52.124 0 0 0-6.776-.582c-1.5-.36-2.666-.598-3.488-.726-.103.064-.071.191.104.399a.455.455 0 0 0 0 .207c0 .04-.064.072-.152.112.143.118.279.243.407.375 1.134 1.138 2.028 1.729 2.682 1.771h.064l.104.311c-.367.543-.647.942-.846 1.197-.254.388-.596.71-.998.942.07.162.125.33.168.502.055.263.092.53.111.798a1.18 1.18 0 0 1 0 .168l.264-.136c.402-.265.742-.613.997-1.021.253-.34.584-.614.966-.798a.559.559 0 0 0 .367-.24.59.59 0 0 1 .16-.23c.116.01.23.028.343.055.088 0 .152.16.192.375a1.883 1.883 0 0 1-.878 1.74c-.176.143-.36.287-.559.422h-.08a8.9 8.9 0 0 1-1.165.615l-.144.087a3.664 3.664 0 0 1-1.109.471h-1.764a4.933 4.933 0 0 1-.63-.168c.45-.118.892-.265 1.325-.438a4.717 4.717 0 0 1-2.131-1.269 3.12 3.12 0 0 1-.376.614.878.878 0 0 1-.43.351c-.6-.319-1.357-.75-2.267-1.276l-.838.064a10.94 10.94 0 0 0-1.349-1.708 35.713 35.713 0 0 1-1.796-1.795 4.979 4.979 0 0 1-1.26-1.827c-.08-.367.39-.319 1.388.144a6.29 6.29 0 0 0 3.95.798c.56-.112 1.421.768 2.587 2.64 1.133 1.875 2.099 2.73 2.897 2.577.232-.056.451-.156.646-.295l-.183-.95a43.683 43.683 0 0 1-2.507-5.672 1.07 1.07 0 0 0 .192-.287c.048.072.12.175.2.311.067.094.142.182.223.263a1.324 1.324 0 0 1-.351-.63v-.367c2.715.09 5.42.356 8.1.798 4.286.59 7.152.782 8.5.519z"/>
        <path fill="#CE7C56" d="M379.447 168.039c-.91-1.556-1.365-2.338-1.365-2.394a18.098 18.098 0 0 1-.415-4.26v-.567c1.15 0 2.323 0 3.528-.064l2.05-.048c2.161-.234 3.781-.412 4.861-.534 1.63-.183 3.274-.21 4.909-.08a77.965 77.965 0 0 0 7.797 1.38c.91.288 2.285.695 4.126 1.221 1.634.479 2.99.93 4.07 1.356.16.14.263.333.288.543a3.48 3.48 0 0 1-.647.191l-.31-.103c-3.544-1.245-5.508-1.907-5.883-2.003a40.507 40.507 0 0 0-10.623-1.651c-.42.277-.788.629-1.085 1.037a4.03 4.03 0 0 1-2.314 1.683c-.426.09-1.676-.244-3.752-1.005a55.54 55.54 0 0 1-2.083-.798c-.59.08-1.184.116-1.78.104a6.142 6.142 0 0 0-.239 2.816c.192.958.958 2.194 2.299 3.726.63.702 1.229 1.34 1.795 1.907a6.251 6.251 0 0 1-1.245-.152 4.254 4.254 0 0 1-2.043-.925 22.145 22.145 0 0 1-1.692-1.492l-.247.112z"/>
        <path fill="url(#o)" d="M248.337 124.512a9.81 9.81 0 0 0-.798 3.862c.083 1.615.321 3.218.71 4.787a18.793 18.793 0 0 0 1.11 3.654 68.824 68.824 0 0 1-33.776-3.407 47.892 47.892 0 0 1-10.487-5.37 102.397 102.397 0 0 0-12.499-7.132c-11.764 3.57-20.362.846-25.794-8.17a5.089 5.089 0 0 1 .247-6c6.002-8.473 13.815-11.084 23.44-7.835a54.18 54.18 0 0 1 17.942 10.237 146.447 146.447 0 0 0 14.477 10.906l22.986 4.66c.805-.147 1.623-.21 2.442-.192zm2.61 12.072a12.836 12.836 0 0 1-.799-1.468 6.31 6.31 0 0 1-.494-2.474c-.024-1.865.19-3.726.638-5.537.171-.708.406-1.4.702-2.066a9.577 9.577 0 0 0-.846-.287 6.944 6.944 0 0 1 3.6 2.242h-.16l-.758-.798a6.74 6.74 0 0 0-1.197 6.383c.29 1.248.704 2.464 1.237 3.63-.67.16-1.277.271-1.923.375z" transform="translate(127 34)"/>
        <path fill="#FFF" d="M376.326 170.831a18.793 18.793 0 0 1-1.109-3.654 25.364 25.364 0 0 1-.71-4.787 9.81 9.81 0 0 1 .798-3.862c.311 0 .606 0 .902.064l.917.176c.288.087.575.175.846.287a12.02 12.02 0 0 0-.702 2.066 21.894 21.894 0 0 0-.638 5.537 6.31 6.31 0 0 0 .494 2.474c.234.506.5.996.799 1.468l-1.597.231zM396.758 177.31l-1.796 1.1v4.596l1.804-1.1-.008-4.596zm3.192-1.987l-1.684 1.093v4.604l1.684-1.101v-4.596zm-6.385 3.99l-1.795 1.029v4.555l1.795-.981v-4.604zm12.634 13.674l-3.12 1.867v4.724l3.12-1.907v-4.684zm3.99-2.457v4.636l4.558-2.8v-4.676l-4.557 2.84zm-13.87-.67l2.633-1.652v-4.683l-2.633 1.691v4.644zm-4.438 9.574v-4.683l-2.202 1.444v4.556l2.202-1.317zm-.878-11.05l-2.721 1.74v4.595l2.721-1.771v-4.564zm-10.718 3.654v-4.596l-9.114 5.474v4.683l9.114-5.561zm8.196 4.835l-2.306 1.484v4.604l2.275-1.484.031-4.604zm-3.24 1.915l-2.314 1.476v4.683l2.314-1.444v-4.715zm34.318-2.162v-4.596l-1.795 1.021v4.556l1.795-.981zm0-18.231l-1.795 1.021v4.58l1.795-.982v-4.62zm0-2.88v-4.596l-1.795 1.021v4.556l1.795-.981zm-1.795-11.05v4.555l1.795-.981v-4.596l-1.795 1.021zm1.795 52.833v-4.58l-1.795 1.022v4.563l1.795-1.005zm-1.795-17.648v4.555l1.795-.981v-4.596l-1.795 1.022zm-6.48 4.1v4.604l3.479-2.082v-4.676l-3.48 2.154zm8.275-18.757l-1.795 1.021v4.556l1.795-.981v-4.596zm-1.795 21.694v4.555l1.795-.981v-4.596l-1.795 1.022zm-44.175 20.097l-2.394 1.596v4.596l2.394-1.484v-4.708zm-2.394 8.442v4.675l7.837-4.787v-4.683l-7.837 4.795zm0-27.75v4.676l3.192-1.987v-4.627l-3.192 1.938zm0 6.958v4.667l7.518-4.62v-4.595l-7.518 4.548zm30.583-4.787v4.595l3.839-2.393v-4.564l-3.84 2.362zm-6.84 8.776v-4.556l-4.15 2.545v4.596l4.15-2.585zm-3.392-9.439l-2.203 1.317v4.675l2.203-1.308v-4.684zm2.634-1.651v4.587l5.802-3.606v-4.595l-5.802 3.614zm-17.39 31.275l-2.834 1.78v4.675l2.833-1.859v-4.596zm30.183-13.563v-4.715l-6.033 3.694v4.651l6.033-3.63zm-40.176 24.733l5.395-3.35v-4.596l-5.395 3.271v4.675zm15.659-9.933v-4.603l-2.841 1.779v4.683l2.84-1.859zm4.357-2.513v-4.667l-2.96 1.827v4.555l2.96-1.715zm1.277-5.521v4.675l2.961-1.899v-4.603l-2.96 1.827z"/>
        <path fill="#FE0178" d="M402.92 173.536v4.596l11.795-7.245v-4.604l-11.796 7.253zm11.795 25.778v-4.595l-10.958 6.654v4.683l10.958-6.742zm-21.868 22.635v4.716l4.437-2.833v-4.595l-4.437 2.712z"/>
        <path fill="#0099E6" d="M398.92 197.384l-3.192 1.954v4.604l3.193-1.907v-4.651zm-3.838.055v-4.667l-2.235 1.396v4.596l2.235-1.325zm-14.07 1.596v-4.595l-9.873 6.143v4.596l9.872-6.144zm33.703 14.178v-4.596l-11.397 6.95v4.683l11.397-7.037zm-25.348 15.558v-4.635l-4.956 2.944v4.683l4.956-2.992z"/>
        <path fill="#6CCEFF" d="M400.206 189.708v4.66l14.509-8.944v-4.62l-14.51 8.904zm7.47-11.497v4.596l7.039-4.396v-4.596l-7.04 4.396zm7.039 41.975v-4.675l-5.315 3.303v4.595l5.315-3.223zm-48.413 3.99v4.683l9.873-6.064v-4.675l-9.873 6.055zm32.619 5.664v-4.564l-6.074 3.694v4.556l6.074-3.686z"/>
        <path fill="#0FF" d="M345.04 202.53a1.213 1.213 0 0 1 1.693 0c.458.47.458 1.22 0 1.691a1.197 1.197 0 0 1-1.692-1.691zm-1.14-1.15a2.704 2.704 0 0 0-.799 1.995 2.817 2.817 0 0 0 2.794 2.793 2.897 2.897 0 0 0 2.793-2.793 2.809 2.809 0 0 0-2.793-2.792 2.698 2.698 0 0 0-1.995.798z"/>
        <path fill="#FFF" d="M345.04 202.53a1.197 1.197 0 0 0 1.693 1.691c.458-.47.458-1.22 0-1.691a1.213 1.213 0 0 0-1.692 0z"/>
        <path fill="#0FF" d="M343.9 189.812a2.704 2.704 0 0 0-.799 1.995 2.817 2.817 0 0 0 2.794 2.792 2.897 2.897 0 0 0 2.793-2.792 2.809 2.809 0 0 0-2.793-2.793 2.698 2.698 0 0 0-1.995.798zm1.14 1.149a1.213 1.213 0 0 1 1.693 0c.458.47.458 1.22 0 1.691a1.197 1.197 0 0 1-1.692-1.691z"/>
        <path fill="#FFF" d="M345.04 190.96a1.197 1.197 0 0 0 1.693 1.692c.458-.47.458-1.22 0-1.691a1.213 1.213 0 0 0-1.692 0z"/>
        <path fill="#0FF" d="M344.754 177.43a1.549 1.549 0 0 1 1.14-.455c.425-.012.836.152 1.134.454.303.302.467.715.455 1.141a1.556 1.556 0 0 1-1.596 1.596 1.557 1.557 0 0 1-1.596-1.596 1.595 1.595 0 0 1 .463-1.14zm-1.533-1.532a3.63 3.63 0 0 0-1.077 2.672 3.79 3.79 0 0 0 3.75 3.75 3.496 3.496 0 0 0 2.619-1.14 3.454 3.454 0 0 0 1.157-2.61 3.534 3.534 0 0 0-1.133-2.672 3.584 3.584 0 0 0-2.618-1.078 3.632 3.632 0 0 0-2.698 1.078z"/>
        <path fill="#FFF" d="M344.754 177.43a1.595 1.595 0 0 0-.455 1.14 1.556 1.556 0 0 0 1.596 1.596 1.557 1.557 0 0 0 1.596-1.596 1.548 1.548 0 0 0-.455-1.14 1.533 1.533 0 0 0-1.133-.455c-.43-.015-.846.15-1.15.454z"/>
        <path fill="#CE7C56" d="M284.417 133.89l-.191-.159c.447-2.165.223-5.646-.67-10.444a165.85 165.85 0 0 1 8.914 5.29 9.58 9.58 0 0 0 7.183 1.253 15.59 15.59 0 0 0 3.44-1.077c-.373 4.287-.679 7.146-.918 8.576a22.334 22.334 0 0 1-.702 3.32c-.75 2.473-2.153 3.59-4.206 3.35a73.42 73.42 0 0 0-6.385-5.33l-.798-.613-.264-.192-5.403-3.973z"/>
        <path fill="#FFF" d="M302.478 130.021c-.04-.255-.088-.51-.143-.758l.111.056.032.702zm-19.242 3.638l.16-.143.654-.583c.798.639 1.19.966 1.197.99 3.044 2.5 5.363 4.297 6.96 5.393a23.539 23.539 0 0 0 7.805 3.846c1.006-3.032 1.692-5.314 2.043-6.846.104-.423.192-.846.264-1.252-.431 7.116-1.743 10.675-3.935 10.675-1.389 0-4.366-1.894-8.93-5.68a164.615 164.615 0 0 1-6.713-5.945l.495-.455z"/>
        <path fill="#FF9800" d="M293.332 211.21c-.351-.095-.702-.191-1.054-.303l-7.079-2.872-.271-.144a5.282 5.282 0 0 1-2.753-3.989c0-.168-.088-1.875-.208-5.122a81.255 81.255 0 0 0-.176-2.825 640.924 640.924 0 0 0-.359-4.308 28.157 28.157 0 0 0-2.083-9 51.177 51.177 0 0 0-4.972-9.382 58.238 58.238 0 0 1-4.517-8.067 11.17 11.17 0 0 1-.95-.797 19.092 19.092 0 0 1-5.403-8.298 11.661 11.661 0 0 1-.231-3.128c.297-4.287 3.176-8.045 8.635-11.273l.263-.088.264-.088a17.136 17.136 0 0 1 6.201 4.173 13.905 13.905 0 0 1 3.99 7.907 56.798 56.798 0 0 1 1.381 10.443c.123 3.25.443 6.49.958 9.702.165.734 1.87 8.231 5.116 22.492 1.612 7.042 2.695 12.031 3.248 14.967z"/>
        <path fill="url(#p)" d="M166.332 177.21c-.532-2.936-1.615-7.93-3.248-14.983-3.246-14.266-4.951-21.763-5.116-22.492a80.447 80.447 0 0 1-.958-9.701 56.798 56.798 0 0 0-1.34-10.412c-.433-3-1.835-5.777-3.991-7.907a17.136 17.136 0 0 0-6.233-4.165 14.168 14.168 0 0 0 5.227-2.88l5.587-5.01-.495.462a216.368 216.368 0 0 0 6.712 5.944c4.565 3.793 7.542 5.686 8.93 5.68 2.188 0 3.5-3.558 3.936-10.674.328-1.664.381-3.37.16-5.05v-.687a19.04 19.04 0 0 0 5.722 1.484c1.846.201 3.713.107 5.53-.28 5.944 1.815 9.08 8.44 9.41 19.875.515 2.815.716 5.678.599 8.537.448 4.824.602 9.67.462 14.513-.218 4.144-.417 8.284-.598 12.423a246.105 246.105 0 0 0-.248 12.638v1.515a19.43 19.43 0 0 1-.67 4.413 12.234 12.234 0 0 1-4.908 4.053 40.791 40.791 0 0 1-6.146 2.194 32.15 32.15 0 0 1-13.631 1.34 36.34 36.34 0 0 1-4.693-.83z" transform="translate(127 34)"/>
        <path fill="#FFAA83" d="M285.558 125.154c.285.062.565.142.838.24a9.515 9.515 0 0 1-.917-.4.096.096 0 0 1 0-.08l-.24-.238c-.07.033-.137.073-.2.12a10.175 10.175 0 0 1-2.433-1.916c-1.198-1.356-1.796-2.58-1.796-3.67a3.406 3.406 0 0 1 .718-1.875.894.894 0 0 0-.2-.16h2.315c.118-.026.238-.04.36-.04.638-.079 1.276-.175 1.915-.278 2.53-.328 4.919-1.35 6.903-2.952a36.212 36.212 0 0 0 4.67-4.708 32.18 32.18 0 0 1 6.424-4.069c0 .614-.04 1.227-.12 1.835a46.192 46.192 0 0 1 2.514 8.537c.08.559.168 1.117.28 1.676 0 .263.047.534.08.798a28.37 28.37 0 0 1 .04 4.428c-.003.2-.017.4-.04.598-.057.423-.12.862-.2 1.317a36.754 36.754 0 0 1-.559 4.507 4.405 4.405 0 0 1-2.753 3.232c-4.182 1.196-8.266.532-12.251-1.995a18.785 18.785 0 0 1-5.348-4.907z"/>
        <path fill="#CE7C56" d="M281.568 117.176a8.538 8.538 0 0 1 1.117-1.237c1.357-1.298 2.381-1.191 3.073.32.067.192.107.394.12.598-.639.103-1.277.2-1.916.279-.12 0-.241.013-.359.04h-2.035z"/>
        <path fill="#ED9870" d="M285.878 116.857a2.225 2.225 0 0 0-.12-.599c-.692-1.516-1.716-1.622-3.073-.319a8.538 8.538 0 0 0-1.117 1.237h-.28a.894.894 0 0 1 .2.16 3.406 3.406 0 0 0-.718 1.874c0 1.09.598 2.314 1.796 3.67.709.76 1.53 1.405 2.434 1.915a4.316 4.316 0 0 1-1.556.28 2.644 2.644 0 0 1-.679-.08 7.581 7.581 0 0 1-2.993-2.593v-.08c0-.08-.04 0-.04 0v-.08a.287.287 0 0 0-.12-.12.128.128 0 0 0 0-.08v-.04c0-.055-.055-.079-.08-.079l-1.875-3.47a1.117 1.117 0 0 0-.12-.32c-.055-.319-.111-.622-.159-.917a2.626 2.626 0 0 1 1.875-.878 1.843 1.843 0 0 1-.12-1.476 13.218 13.218 0 0 1 1.118-3.271 9.187 9.187 0 0 1 2.554-1.356c.192.69.532 1.33.998 1.874 3.272-.824 5.56-2.007 6.863-3.55.743-.902 1.804-2.394 3.193-4.388a21.956 21.956 0 0 1 8.3-5.545s0 .064.08.12a12.356 12.356 0 0 1 1.756 6.462 32.18 32.18 0 0 0-6.425 4.07 36.212 36.212 0 0 1-4.669 4.706 13.817 13.817 0 0 1-7.023 2.873zm-.4 8.138c.3.149.606.282.918.399a6.793 6.793 0 0 0-.838-.24l-.08-.16z"/>
        <path fill="#713D22" d="M301.281 97.517a234.41 234.41 0 0 0-4.382 3.566c-6.145 5.059-10.992 7.598-14.54 7.62a15.168 15.168 0 0 1-7.28-1.596l-.598-.423a16.106 16.106 0 0 1 2.434-6.008 18.696 18.696 0 0 1 5.052-5.218 17.314 17.314 0 0 1 6.64-2.752 13.731 13.731 0 0 1 7.183.494c2.198.898 4.1 2.394 5.491 4.317zm-25.212 17.864a30.526 30.526 0 0 1-.99-3.248 19.16 19.16 0 0 0 8.476 1.764c.848.003 1.696-.042 2.538-.136a35.814 35.814 0 0 0-.527 2.537c-1.589-.45-3.22-.733-4.868-.846a31.423 31.423 0 0 0-4.629-.071z"/>
        <path fill="#452312" d="M274.48 106.66l.6.423a15.168 15.168 0 0 0 7.278 1.596c3.554 0 8.401-2.54 14.541-7.62a234.41 234.41 0 0 1 4.382-3.566c.312.39.595.804.846 1.237a13.081 13.081 0 0 1 1.66 8.33c-.351-.711-.798-1.597-1.309-2.65-.183-.375-.495-1.109-.918-2.186a63.539 63.539 0 0 1-4.198 4.787c-.973.947-2.42 2.184-4.341 3.71a12.07 12.07 0 0 1-6.744 2.553 2.664 2.664 0 0 0-.184.463c-.842.094-1.69.14-2.538.136a19.16 19.16 0 0 1-8.476-1.764 28.212 28.212 0 0 1-.702-4.787 7.09 7.09 0 0 1 .104-.662zm11.086 9.63a3.9 3.9 0 0 0-.143.67 25.994 25.994 0 0 0-.248 2.793 3.733 3.733 0 0 0 0 .526c.012.117.012.235 0 .351a21.555 21.555 0 0 1-2.186-.35 5.274 5.274 0 0 0-2.29-3.192 2.578 2.578 0 0 0-3.537.63c-.44-.738-.806-1.519-1.093-2.33 1.543-.09 3.09-.065 4.63.072 1.646.107 3.278.386 4.867.83z"/>
        <path fill="url(#q)" d="M147.696 136.672l-2.442 17.895c2.825 9.043-.564 13.689-10.168 13.939-3.112.096-4.927-3.293-5.443-10.165-.516-6.872.485-16.896 3.001-30.07 2.512-13.176 6.928-18.966 13.249-17.37 7.98 6.686 9.768 14.888 5.363 24.606l-3.56 1.165z" transform="translate(127 34)"/>
        <path fill="#AD6700" d="M271.751 187.004a11.116 11.116 0 0 1 4.581-4.835 3.808 3.808 0 0 1 2.953-.623 3.847 3.847 0 0 1 2.554 1.524 5.863 5.863 0 0 1 1.485 3.646 8.136 8.136 0 0 1-.71 3.934 7.181 7.181 0 0 1-2.1 2.322 10.017 10.017 0 0 1-3.144 1.515c-3.089.846-5.076.343-5.938-1.508a6.54 6.54 0 0 1 .32-5.975z"/>
        <path fill="url(#r)" d="M144.727 150.57l4.645-2.569c-3.192 2.378-4.256 5.253-3.192 8.625a3.942 3.942 0 0 0 2.283 2.481c2.463.958 4.482.61 6.057-1.045a69.544 69.544 0 0 1-2.043 2.6 6.714 6.714 0 0 1-2.873.176c-3.932-.85-5.794-3.015-5.587-6.494.095-1.28.333-2.546.71-3.774zm5.443 12.766a31.093 31.093 0 0 0-1.532 1.978c-2.81 3.814-5.435 5.777-7.877 5.889a14.784 14.784 0 0 1-7.885-2.218c-2.81-1.596-3.712-4.314-2.706-8.155 1.014-3.853 2.083-6.087 3.232-6.701a23.35 23.35 0 0 1 9.681-2.665l.336-.184-.056.24c0 .055-.104.861-.344 2.393a10.752 10.752 0 0 0 0 3.463c.503 3.04 2.898 5.01 7.151 5.976v-.016z" transform="translate(127 34)"/>
        <path fill="#FFF" d="M271.727 184.57a17.173 17.173 0 0 0-.75 3.774c-.197 3.473 1.666 5.638 5.587 6.494.959.15 1.94.09 2.873-.175-.503.606-1.014 1.205-1.532 1.803-.256.287-.503.583-.75.886-4.254-.966-6.649-2.936-7.183-5.936a10.752 10.752 0 0 1 0-3.463c.239-1.556.359-2.394.343-2.394l.056-.239 1.356-.75z"/>
        <path fill="url(#t)" d="M20.942.04c9.735.007 18.109 6.886 20.003 16.432 1.894 9.545-3.22 19.099-12.215 22.82-8.994 3.72-19.366.573-24.773-7.52a20.396 20.396 0 0 1 2.54-25.756A19.66 19.66 0 0 1 20.942.04z" filter="url(#u)" style="mix-blend-mode:soft-light" transform="translate(266.667 144.901)"/>
        <path fill="#CE7C56" d="M297.586 178.235c-1.256 1.245-2.985 2.857-5.188 4.835l-.08-.135v-.28c.048-.393.924-1.638 2.626-3.734a24.49 24.49 0 0 1 2.833-3.015c-.16.395-.374.766-.638 1.1.064.208.183.527.351.966.038.085.07.173.096.263zm.175-5.585c-.057.133-.123.26-.2.383l.64.647a93.303 93.303 0 0 1-2.355 2.233c-1.876 1.764-3.504 3.24-4.868 4.405l-.08-.335c.404-.394 1.976-2.09 4.717-5.09.83-.894 1.54-1.644 2.178-2.21l-.032-.033z"/>
        <path fill="url(#v)" d="M170.793 138.682c-.606.567-1.317 1.317-2.147 2.242-2.74 3.005-4.312 4.702-4.716 5.09l.08.336c1.364-1.165 2.992-2.641 4.868-4.405.99-.91 1.772-1.66 2.354-2.234l.423.391c-.295.702-.574 1.3-.798 1.804a24.49 24.49 0 0 0-2.833 3.015c-1.697 2.096-2.573 3.34-2.626 3.734v.28l.08.135c2.208-1.978 3.937-3.59 5.188-4.835.01.245-.031.49-.12.718a20.742 20.742 0 0 1-3.065 5.37 12.77 12.77 0 0 1-1.372 1.013c.151-.87-.352-1.189-1.533-.957-1.891.12-2.697-.304-2.394-1.285l.423-.742c-.096-1.252-.91-1.955-2.458-2.09-1.549-.136-2.211-.742-1.98-1.803a6.92 6.92 0 0 0-6.92 2.09 1.597 1.597 0 0 1-1.436-.144 1.11 1.11 0 0 1-.614-.91c-.002-.32.03-.642.096-.957a10.3 10.3 0 0 1 1.316-2.297c.934-1.413 1.517-2.354 1.756-2.817.089-.095.16-.206.208-.327.167-.28.39-.702.654-1.253.292-.51.756-.9 1.31-1.1a22.542 22.542 0 0 0 3.583-1.676.926.926 0 0 1 1.069.63v.048c.117.433.08.892-.104 1.3-.046.25-.15.485-.303.687-.13.174-.274.337-.431.486-.15.164-.322.306-.51.423l-.687.495a.798.798 0 0 0-.295.144l-.623.399a6.804 6.804 0 0 0-.623 1.531l-.31 1.093a6.859 6.859 0 0 0-.128.543 13.83 13.83 0 0 0 4.174-3.55c2.037-2.336 3.272-3.716 3.703-4.141a1.293 1.293 0 0 1 1.596-.36c.212.08.411.19.59.328.253.282.351.669.264 1.037-.091.485-.29.943-.583 1.34-.439.567-.798.974-.973 1.23a62.88 62.88 0 0 0-3.831 5.265 7.982 7.982 0 0 0 2.865-1.596 116.94 116.94 0 0 0 2.45-2.258c.088-.056.798-.734 2.06-2.042a5.044 5.044 0 0 1 2.394-1.476l.279.088c.413.089.729.42.798.837.044.386-.014.777-.168 1.133z" transform="translate(127 34)"/>
        <path fill="url(#w)" d="M166.005 151.336l-.918.463c-.67.359-1.445.726-2.315 1.1-2.21.839-3.838 1.509-4.884 2.027-.907.205-1.79.504-2.634.894a2.05 2.05 0 0 0-1.26 1.548c-.168.75-.99 1.252-2.475 1.492-5.001-.431-6.446-3.205-4.333-8.322.219-.353.408-.724.566-1.109a9.19 9.19 0 0 0 .447-1.173v-.191c.21-1.004.476-1.995.798-2.968a.128.128 0 0 0 0-.08 4.22 4.22 0 0 0 .168-.479 4.634 4.634 0 0 0-.096.958c.03.39.264.736.615.91.428.273.962.327 1.436.143a6.92 6.92 0 0 1 6.92-2.09c-.232 1.06.43 1.66 1.979 1.803 1.548.143 2.394.838 2.458 2.09l-.423.742c-.295.981.51 1.404 2.394 1.285 1.23-.232 1.732.087 1.557.957z" transform="translate(127 34)"/>
        <path fill="#393939" d="M290.547 157.667a1.317 1.317 0 0 1 1.907.973l6.88 22.755a1.42 1.42 0 0 1-1.006 1.978l-11.445 3.942a1.301 1.301 0 0 1-1.9-.974l-6.887-22.754a1.42 1.42 0 0 1 1.014-1.979l11.437-3.941z"/>
        <path fill="#008BF8" d="M183.8 311.851a3.94 3.94 0 0 1 1.27 2.992 4.341 4.341 0 0 1-4.182 4.18 4.221 4.221 0 0 1-4.182-4.18 4.116 4.116 0 0 1 4.182-4.18 3.991 3.991 0 0 1 2.913 1.188zm1.597-1.524a6.282 6.282 0 0 0-4.501-1.835 6.266 6.266 0 0 0-6.345 6.351 6.278 6.278 0 0 0 1.835 4.5 6.146 6.146 0 0 0 4.502 1.835 6.266 6.266 0 0 0 6.337-6.335 6.142 6.142 0 0 0-1.836-4.516h.008z"/>
        <path fill="#0FF" d="M183.8 311.851a3.991 3.991 0 0 0-2.912-1.205 4.119 4.119 0 0 0-4.182 4.197 4.221 4.221 0 0 0 4.182 4.18 4.341 4.341 0 0 0 4.182-4.18 3.94 3.94 0 0 0-1.27-2.992zm-4.181 1.707a1.748 1.748 0 0 1 1.269-.502c.474-.014.933.168 1.269.502.332.338.514.796.502 1.27a1.731 1.731 0 0 1-1.771 1.778 1.756 1.756 0 0 1-1.27-.51 1.723 1.723 0 0 1-.502-1.253 1.747 1.747 0 0 1 .503-1.285z"/>
        <path fill="#FFF" d="M179.619 313.558a1.747 1.747 0 0 0-.503 1.285c-.014.474.168.933.503 1.269.336.334.794.518 1.269.51a1.732 1.732 0 0 0 1.771-1.779 1.747 1.747 0 0 0-.502-1.269 1.724 1.724 0 0 0-1.27-.502 1.748 1.748 0 0 0-1.268.486z"/>
        <path fill="#008BF8" d="M455.753 196.865a6.84 6.84 0 0 0-6.911 6.901 6.828 6.828 0 0 0 2.003 4.907 6.705 6.705 0 0 0 4.908 2.003 6.84 6.84 0 0 0 6.904-6.91 6.637 6.637 0 0 0-2.003-4.898 6.793 6.793 0 0 0-4.9-2.003zm3.193 3.654a4.324 4.324 0 0 1 1.38 3.247 4.724 4.724 0 0 1-4.557 4.556 4.588 4.588 0 0 1-4.557-4.556 4.467 4.467 0 0 1 4.557-4.555 4.342 4.342 0 0 1 3.16 1.308h.017z"/>
        <path fill="#0FF" d="M454.373 202.386a2.004 2.004 0 1 1-.551 1.38 1.875 1.875 0 0 1 .55-1.38zm4.557-1.867a4.342 4.342 0 0 0-3.193-1.308 4.47 4.47 0 0 0-4.557 4.555 4.588 4.588 0 0 0 4.557 4.556 4.724 4.724 0 0 0 4.557-4.556 4.324 4.324 0 0 0-1.364-3.247z"/>
        <path fill="#FFF" d="M454.373 202.386a2.002 2.002 0 1 0 1.38-.55 1.876 1.876 0 0 0-1.38.55z"/>
        <path fill="url(#x)" d="M124.216 151.304v1.668c-21.98 3.627-41.666 10.467-59.06 20.52-27.135 15.718-40.702 34.688-40.702 56.911 0 16.398 7.374 31.026 22.123 43.882a95.97 95.97 0 0 0 1.908 1.595h-1.533v1.5l-1.596-1.324c-15.802-13.34-23.704-28.558-23.704-45.653 0-22.643 13.86-41.99 41.581-58.044 17.942-10.372 38.27-17.39 60.983-21.055z" transform="translate(127 34)"/>
        <path fill="#CE7C56" d="M298.208 173.703a58.052 58.052 0 0 1-2.394 2.234c-1.891 1.78-3.512 3.248-4.868 4.389l-.08-.32c.399-.377 1.968-2.08 4.709-5.106a23.74 23.74 0 0 1 2.155-2.194 1.18 1.18 0 0 1-.2.36l.678.637zm-.399 2.234c-.17.392-.399.755-.678 1.078.08.183.207.502.399.957.027.09.04.185.04.28-1.25 1.25-2.98 2.845-5.188 4.786l-.08-.12v-.239c.048-.423.918-1.675 2.594-3.75a21.034 21.034 0 0 1 2.897-2.992h.016z"/>
        <path fill="url(#y)" d="M170.793 138.706a23.74 23.74 0 0 0-2.155 2.194c-2.745 3.032-4.315 4.734-4.708 5.106l.08.32c1.356-1.141 2.976-2.61 4.868-4.389.982-.901 1.764-1.651 2.394-2.234l.4.4a38.23 38.23 0 0 1-.799 1.834A21.034 21.034 0 0 0 168 144.93c-1.676 2.075-2.546 3.327-2.594 3.75v.24l.08.12c2.203-1.942 3.932-3.538 5.188-4.788.024.233-.017.468-.12.678a19.657 19.657 0 0 1-3.073 5.386c-.427.364-.88.698-1.357.997.16-.854-.35-1.173-1.516-.957-1.915.135-2.713-.295-2.394-1.277l.399-.718c-.112-1.253-.918-1.939-2.434-2.074-1.517-.136-2.211-.798-1.996-1.795a8.335 8.335 0 0 0-2.218-.216 6.729 6.729 0 0 0-4.685 2.25 1.421 1.421 0 0 1-1.437-.12 1.021 1.021 0 0 1-.638-.877 3.797 3.797 0 0 1 .12-.998 9.573 9.573 0 0 1 1.316-2.273c.902-1.413 1.485-2.354 1.756-2.833a.95.95 0 0 0 .2-.319l.678-1.277c.134-.218.295-.42.479-.598l1.596 5.003v.063c0 .16-.072.344-.12.559l.28-.16a14.364 14.364 0 0 0 3.87-3.39c2.044-2.338 3.297-3.726 3.752-4.15a1.27 1.27 0 0 1 1.556-.358c.209.06.4.17.559.319.265.275.383.66.319 1.037a3.51 3.51 0 0 1-.639 1.356l-.957 1.237a60.725 60.725 0 0 0-3.791 5.266 9.083 9.083 0 0 0 2.833-1.596c.559-.503 1.365-1.252 2.434-2.234.104-.056.798-.734 2.075-2.034a5.26 5.26 0 0 1 2.394-1.516l.28.08c.406.089.729.396.838.797.017.413-.065.823-.24 1.197z" transform="translate(127 34)"/>
        <path fill="url(#z)" d="M166.005 151.312c-.32.184-.615.343-.878.479-.695.375-1.477.742-2.355 1.117-2.186.798-3.806 1.492-4.868 1.994-.903.227-1.785.534-2.634.918a2.067 2.067 0 0 0-1.277 1.556c-.16.742-.973 1.236-2.434 1.476-5.028-.426-6.478-3.192-4.35-8.298.228-.359.403-.748.52-1.157.203-.366.364-.754.478-1.157 0-.068.014-.136.04-.199.2-.997.453-1.982.758-2.952v-.04c.08-.183.144-.359.2-.519a3.797 3.797 0 0 0-.12.998c.027.39.275.731.639.877.421.298.971.344 1.436.12a6.729 6.729 0 0 1 4.685-2.25 8.335 8.335 0 0 1 2.219.216c-.216 1.037.447 1.595 1.995 1.795 1.548.2 2.322.798 2.434 2.074l-.399.718c-.32.982.479 1.412 2.394 1.277 1.182-.216 1.692.103 1.517.957z" transform="translate(127 34)"/>
        <g>
            <g fill-rule="nonzero" transform="translate(23 155)">
                <use fill="#000" filter="url(#A)" xlink:href="#B"/>
                <use fill="#FFF" xlink:href="#B"/>
                <use fill="url(#C)" xlink:href="#B"/>
                <circle cx="34.5" cy="33.5" r="20.5" fill="#BCBCBC"/>
                <circle cx="34.5" cy="33.5" r="19.879" fill="#FFF"/>
                <circle cx="34.5" cy="33.5" r="16.773" fill="#FF8B00"/>
                <path fill="#FFF" d="M43.377 31.183c.373-2.485-1.516-3.814-4.1-4.703l.814-3.36-2.044-.535-.814 3.268c-.534-.13-1.062-.261-1.64-.385l.814-3.28-2.044-.535-.826 3.405a50.8 50.8 0 0 1-1.304-.31l-2.82-.703-.504 2.18s1.516.348 1.485.367c.583.056 1.01.573.956 1.156l-2.31 9.237a.745.745 0 0 1-.938.485l-1.485-.373-1.038 2.323 2.66.665 1.459.379-.845 3.398 2.05.528.839-3.36c.534.148 1.1.291 1.627.422l-.838 3.342 2.037.553.845-3.392c3.504.62 6.132.348 7.225-2.79.888-2.54-.044-4-1.864-4.97a3.255 3.255 0 0 0 2.61-3l-.007-.012zm-4.665 6.547c-.621 2.541-4.908 1.168-6.293.82l1.124-4.497c1.38.354 5.821 1.037 5.163 3.69l.006-.013zm.621-6.584c-.565 2.31-4.143 1.13-5.274.82l1.019-4.057c1.155.298 4.882.839 4.261 3.243l-.006-.006z"/>
            </g>
            <g fill-rule="nonzero" transform="translate(113.456)">
                <circle cx="20.447" cy="20.447" r="20.447" fill="url(#D)"/>
                <circle cx="20.5" cy="20.5" r="16.5" fill="#BCBCBC"/>
                <circle cx="20.5" cy="20.5" r="16" fill="#FFF"/>
                <circle cx="20.5" cy="20.5" r="13.5" fill="#4BCF51"/>
                <path fill="#FFF" d="M27.645 18.635c.3-2-1.22-3.07-3.3-3.785L25 12.145l-1.645-.43-.655 2.63c-.43-.105-.855-.21-1.32-.31l.655-2.64-1.645-.43-.665 2.74c-.36-.08-.71-.165-1.05-.25l-2.27-.565L16 14.645s1.22.28 1.195.295c.47.045.813.46.77.93l-1.86 7.435a.6.6 0 0 1-.755.39l-1.195-.3-.835 1.87 2.14.535 1.175.305-.68 2.735 1.65.425.675-2.705c.43.12.885.235 1.31.34l-.675 2.69 1.64.445.68-2.73c2.82.5 4.935.28 5.815-2.245.715-2.045-.035-3.22-1.5-4a2.62 2.62 0 0 0 2.1-2.415l-.005-.01zm-3.755 5.27c-.5 2.045-3.95.94-5.065.66l.905-3.62c1.11.285 4.685.835 4.155 2.97l.005-.01zm.5-5.3c-.455 1.86-3.335.91-4.245.66l.82-3.265c.93.24 3.93.675 3.43 2.61l-.005-.005z"/>
            </g>
            <g fill-rule="nonzero" transform="translate(477.527 16)">
                <circle cx="21.943" cy="21.943" r="21.943" fill="url(#D)"/>
                <circle cx="22" cy="22" r="15.75" fill="#000"/>
                <g fill="#FFF">
                    <path d="M28.941 13.818h2.84l-5.908 5.848a5.517 5.517 0 0 1-7.746 0l-5.909-5.848h2.84l4.489 4.443a3.494 3.494 0 0 0 4.905 0l4.49-4.443zM15.022 30.08h-2.84l5.945-5.884a5.518 5.518 0 0 1 7.746 0l5.945 5.884h-2.84L24.453 25.6a3.494 3.494 0 0 0-4.906 0l-4.525 4.479z"/>
                </g>
            </g>
            <g transform="translate(474 181)">
                <circle cx="24.5" cy="24.5" r="24.5" fill="url(#D)" fill-rule="nonzero"/>
                <circle cx="24.5" cy="24.5" r="16.5" fill="#BCBCBC" fill-rule="nonzero"/>
                <circle cx="24.5" cy="24.5" r="16" fill="#FFF" fill-rule="nonzero"/>
                <path fill="#969594" d="M24.527 10.5L16 24.719l8.527 5.086L33 24.719 24.527 10.5zM16 26.414l8.527 5.031L33 26.414 24.527 38.5 16 26.414z"/>
                <path fill="#444340" d="M24.527 29.772V10.5l8.45 14.179-8.45 5.093zm8.421-3.34L24.527 38.5v-7.033l8.421-5.034z"/>
                <path fill="#494745" d="M24.527 20.89L16 24.72l8.527 5.086L33 24.719z"/>
                <path fill="#282623" d="M24.527 29.805L33 24.719l-8.473-3.828z"/>
            </g>
            <g transform="translate(324.17 412.573)">
                <circle cx="24.5" cy="24.5" r="24.5" fill="url(#E)"/>
                <circle cx="24" cy="25" r="18" fill="#367BD4"/>
                <path fill="#FFF" fill-rule="nonzero" d="M13 26.5v-.111c.202-.445.404-.889.606-1.389.202-.444.336-.889.538-1.333.068-.111.135-.167.27-.167H23.5c0 .056-.067.167-.067.222l-1.01 2.5c-.067.167-.135.222-.404.222h-8.75c-.067.056-.202.056-.269.056zm22.5-5.036a864.115 864.115 0 0 0-2.365 6.482c-.485 1.339-2.547 3.106-4.791 3.053-5.034-.054-10.068 0-15.04 0H13c.06-.16.121-.322.182-.429.303-.75.606-1.553.849-2.303.06-.214.182-.214.364-.214H27.98c.182 0 .303-.054.364-.215.667-1.874 1.395-3.75 2.062-5.624 0-.054.06-.107.06-.214h-14.13c0-.107.06-.161.06-.215.303-.857.667-1.714.97-2.57.061-.161.122-.215.304-.215h15.283c.303 0 .667.054.97.107.85.268 1.334.804 1.516 1.554 0 .053.061.107.061.16v.643z"/>
            </g>
            <g transform="translate(98.527 294.79)">
                <circle cx="16.5" cy="16.5" r="16.5" fill="url(#E)"/>
                <path fill="#345D9D" fill-rule="nonzero" d="M16.5 6C10.7 6 6 10.701 6 16.5 6 22.3 10.7 27 16.5 27 22.299 27 27 22.3 27 16.5 27 10.701 22.299 6 16.5 6z"/>
                <path fill="#FFF" d="M16.661 16.844l-1.087 3.686 5.832.001a.3.3 0 0 1 .288.382l-.5 1.752a.4.4 0 0 1-.385.29l-8.922-.003 1.507-5.096-1.669.517.358-1.212 1.67-.517 2.118-7.159a.4.4 0 0 1 .384-.29l2.26.002a.3.3 0 0 1 .288.382l-1.782 6.05 1.668-.516-.357 1.211-1.671.52z"/>
            </g>
        </g>
    </g>
</svg>
