<svg width="1106" height="998" viewBox="0 0 1106 998" fill="none" xmlns="http://www.w3.org/2000/svg">
  <g opacity="0.08">
    <path d="M-10.1375 1153.71L-14.7232 1153.7C45.1305 1085.37 179.47 1035.17 329.788 1025.12C370.491 1022.44 396.773 1007.24 405.877 981.12C412.561 961.872 409.854 937.677 397.864 911.057C385.874 884.553 365.974 858.148 340.222 834.714C330.378 825.754 319.164 814.384 307.263 802.21C251.992 745.819 176.236 668.755 108.876 703.944C72.0403 723.252 65.0954 759.811 57.8028 798.433C50.3945 837.628 42.7544 878.199 0.87392 897.612C-11.7475 903.436 -26.3149 907.537 -42.828 909.915L-42.8153 902.922C-27.3342 900.657 -13.7991 896.783 -1.98076 891.302C36.687 873.373 43.7476 836.241 51.1559 797.046C58.4485 758.423 65.9726 718.541 105.792 697.748C158.349 670.328 214.003 705.166 262.305 748.589C300.655 779.269 335.781 817.624 361.65 840.027C450.705 917 478.009 1033.07 359.555 1047.3C242.936 1061.42 136.588 1101.12 69.4259 1153.74L-10.1375 1153.71Z" fill="#53BDB1"/>
    <path d="M198.604 -93.3654C212.021 -95.29 226.015 -99.3919 240.812 -103.722C266.162 -111.128 292.085 -118.647 317.188 -116.079C339.547 -118.217 361.556 -116.458 381.713 -105.301C405.764 -91.9582 413.616 -59.7289 403.599 -36.0156C372.167 38.3319 260.152 42.0269 244.521 126.836L244.521 126.95C234.827 162.358 254.702 202.863 276.551 229.386C313.729 274.279 381.531 311.318 442.852 318.995C445.604 318.886 448.47 318.891 451.222 318.781C475.757 318.138 502.929 317.499 529.867 319.382C575.724 319.695 623.408 324.252 659.824 346.903C717.311 382.547 701.096 473.775 647.013 457.512C644.487 459.457 641.733 461.171 638.864 462.313C627.621 466.993 608.473 467.99 581.916 445.586C553.07 421.344 526.148 410.404 497.257 410.924C471.805 411.452 444.273 420.917 408.008 441.487C375.874 459.772 344.986 486.773 312.375 515.489C261.966 559.651 209.719 605.414 150.769 618.262C114.642 626.107 73.257 624.885 27.6473 614.485C5.30077 609.4 -18.1882 602.135 -42.4758 592.69L-42.4625 585.353C-17.6023 595.143 6.34483 602.638 29.1497 607.838C73.728 618.008 114.195 619.227 149.29 611.61C206.521 599.103 258.078 554.026 307.913 510.322C340.868 481.491 371.986 454.148 404.694 435.52C441.992 414.264 470.556 404.571 497.155 404.046C527.88 403.413 556.177 414.929 586.397 440.32C605.399 456.29 622.586 461.595 636.239 455.888C648.401 450.751 656.565 437.123 657.973 419.241C659.615 398.952 651.529 369.244 623.702 351.882C576.178 322.332 506.929 324.156 451.324 325.546C445.592 325.65 439.974 325.869 434.471 325.974C367.974 327.344 284.012 287.639 239.398 233.675C216.977 206.578 196.646 164.696 206.686 128.143L206.687 128.028C217.071 91.4752 255.063 66.8955 291.907 43.2308C318.421 26.0822 343.442 9.96264 357.924 -9.9593C371.83 -28.9651 377.369 -48.7886 373.616 -65.6482C370.432 -79.8699 361.052 -91.466 345.591 -100.092C313.637 -117.92 277.505 -107.324 242.634 -97.1835C227.608 -92.7396 213.385 -88.6382 199.509 -86.5997C159.602 -80.8252 112.606 -85.3814 67.2321 -99.3357C24.379 -112.597 -13.5302 -133.646 -40.9985 -159.262L-40.9813 -168.777C-13.9739 -141.901 24.9651 -119.704 69.3077 -105.981C113.077 -92.3739 160.188 -87.8174 198.604 -93.3654Z" fill="#53BDB1"/>
    <path d="M486.489 1052.23C549.258 1019.67 608.7 988.936 629.059 952.172C641.596 929.495 644.039 910.01 636.619 892.571C616.297 845.644 525.884 822.666 446.128 802.344C385.967 787.102 334.057 773.824 313.345 752.463C288.514 726.852 278.818 699.549 284.487 671.357C300.569 590.676 435.966 526.262 477.156 508.452C542.44 480.138 589.092 484.923 643.933 525.377C650.803 530.434 658.015 536.409 665.684 542.728C699.34 570.418 741.352 604.773 784.831 589.031C818.903 576.711 854.085 584.456 886.48 611.456C913.495 634.09 937.392 669.559 951.881 708.794C957.128 723.019 961.687 737.816 966.133 752.155C982.545 805.38 998.16 855.623 1047.86 887.699C1063.89 898.046 1083.02 908.284 1103.87 917.378L1103.85 924.83C1081.51 915.274 1061.13 904.461 1044.06 893.424C992.305 859.969 975.665 806.17 959.48 754.092C955.034 739.868 950.59 725.185 945.342 711.075C931.31 672.873 908.214 638.437 882 616.607C860.822 598.914 827.15 580.853 787.112 595.341C739.962 612.452 696.348 576.718 661.319 547.879C653.763 541.675 646.551 535.815 639.796 530.758C587.359 492.028 542.541 487.476 479.896 514.647C456.49 524.808 411.052 546.279 369.497 576.012C323.809 608.832 297.496 641.343 291.249 672.515C286.158 698.416 295.169 723.654 318.284 747.542C337.623 767.525 391.252 781.15 447.86 795.583C529.22 816.252 621.352 839.692 642.929 889.716C651.263 908.992 648.587 930.999 635.129 955.393C613.735 993.99 553.49 1025.18 489.688 1058.2C432.771 1087.67 374.476 1117.95 342.769 1154.23L333.826 1154.21C365.425 1114.95 426.588 1083.19 486.489 1052.23Z" fill="#53BDB1"/>
    <path d="M616.164 1092.93C653.457 1074.54 688.685 1057.06 705.579 1033.93C732.013 997.754 742.406 956.271 734.796 917.049C727.073 877.024 701.113 841.437 661.834 817.061C646.031 807.288 615.209 797.831 582.438 787.798C516.898 767.731 442.65 745.011 432.861 705.785C429.674 692.939 431.186 681.363 437.395 671.4C453.952 644.718 500.631 634.599 538.019 626.527C554.191 623.002 568.183 620.047 576.788 616.279C623.37 596.071 656.725 599.571 695.882 628.418C701.721 632.785 707.444 637.61 713.625 642.781C729.537 656.223 745.906 670.239 764.815 674.286C774.097 676.252 782.928 674.548 792.332 672.731C803.571 670.573 815.269 668.301 827.184 673.023C874.613 691.452 891.919 757.634 905.809 810.854C909.68 825.65 913.324 839.644 917.201 850.886C942.52 924.075 977.076 1024.22 1051.28 1072.16C1065.71 1081.48 1083.57 1090.57 1103.05 1098.17L1103.04 1105.5C1082.07 1097.56 1062.83 1087.89 1047.48 1077.89C971.335 1028.68 936.209 927.159 910.663 853.052C906.671 841.466 903.028 827.358 899.042 812.447C885.493 760.718 868.757 696.372 824.535 679.209C814.339 675.293 804.247 677.224 793.467 679.268C783.833 681.085 773.741 683.015 763.198 680.818C742.57 676.424 725.514 661.948 709.03 647.931C703.078 642.876 697.355 638.051 691.744 633.913C654.878 606.676 623.471 603.524 579.413 622.589C570.234 626.585 555.898 629.655 539.383 633.293C503.141 641.138 458.182 650.916 443.12 675.079C437.831 683.553 436.668 692.952 439.399 704.192C448.277 739.748 523.671 762.813 584.399 781.267C619.003 791.877 648.909 800.988 665.399 811.221C706.281 836.746 733.384 873.826 741.448 915.8C749.399 956.972 738.658 1000.29 711.075 1038.07C693.146 1062.57 657.23 1080.39 619.134 1099.12C585.513 1115.69 551.203 1132.71 529.152 1154.79L519.521 1154.78C542.152 1129.48 579.56 1110.98 616.164 1092.93Z" fill="#53BDB1"/>
    <path d="M736.985 1105.41L739.857 1101.98C775.591 1058.36 816.035 1009.02 797.456 949.604C792.896 934.921 785.241 920.577 777.929 906.806C761.819 876.396 745.138 844.953 759.193 807.031C767.719 784.003 779.767 777.949 788.482 776.818C802.472 775.124 817.587 785.011 830.851 804.639C850.974 834.368 859.967 869.925 868.617 904.334C872.829 920.965 877.154 938.169 882.628 954.115C904.868 1018.36 934.177 1103.36 991.29 1155.63L981.316 1155.61C926.613 1101.97 897.987 1019.26 876.204 956.396C870.616 940.106 866.176 922.787 861.965 906.041C853.428 872.206 844.549 837.338 825.111 808.527C813.449 791.423 800.396 782.343 789.273 783.698C779.64 784.827 771.484 793.755 765.609 809.451C752.591 844.508 767.901 873.197 784.011 903.607C791.437 917.722 799.207 932.296 803.994 947.552L803.994 947.667C823.599 1010.64 781.891 1061.47 745.123 1106.46L742.25 1109.89C741.331 1111.04 739.952 1112.64 738.344 1114.59C726.05 1129.35 715.364 1142.86 706.399 1155.11L697.801 1155.1C709.065 1139.41 721.704 1123.73 733.078 1110.1C734.802 1108.16 736.066 1106.56 736.985 1105.41Z" fill="#53BDB1"/>
    <path d="M435.686 26.6616C467.365 14.0166 496.104 9.68812 516.601 14.3492C545.778 20.9921 561.805 43.4804 577.211 65.2938C582.812 73.0711 588.64 81.2634 594.916 88.4195C611.343 107.111 631.062 116.851 651.972 127.209C673.756 138.009 696.26 149.081 714.497 171.093L714.801 171.592C721.939 183.409 726.758 194.399 729.272 204.239C746.752 244.556 747.428 290.994 707.522 306.381C657.23 325.721 601.025 256.541 557.71 238.603C498.923 214.184 440.738 247.802 380.439 230.541C337.298 218.209 309.407 170.646 312.402 151.217C312.742 148.878 313.328 146.468 313.992 144.142C314.053 142.684 314.191 141.311 314.413 139.86C317.427 119.944 330.89 98.5131 353.41 77.7815C375.432 57.3537 405.408 38.7966 435.686 26.6616ZM648.795 133.406C628.202 123.224 606.974 112.691 589.615 92.9872C583.106 85.5781 577.201 77.3014 571.529 69.2778C556.116 47.6264 541.467 27.1423 515.023 21.0993C475.96 12.1815 403.96 40.4406 357.991 82.7579C336.652 102.403 323.975 122.487 321.19 140.789C318.189 160.381 335.729 175.711 373.014 186.421C398.834 193.817 425.877 197.127 452.117 200.24C487.071 204.526 523.16 208.858 557.142 222.921C569.505 228.057 581.549 235.046 593.113 241.853C622.975 259.396 651.258 275.9 685.886 262.566C696.688 258.388 705.417 253.313 711.574 247.645C729.287 231.339 728.483 207.614 709.055 175.168C691.651 154.57 669.867 143.771 648.795 133.406Z" fill="#53BDB1"/>
    <path d="M143.953 843.517C146.937 841.688 150.265 840.318 153.82 839.293C176.302 832.914 202.773 839.611 226.358 857.538C253.835 878.454 271.662 910.128 271.611 938.216C271.606 941.197 271.371 944.292 271.022 947.157C269.28 959.536 262.842 969.384 251.823 976.586C229.785 990.877 192.295 991.153 168.118 984.23C154.138 980.193 141.434 968.361 132.409 950.919C124.183 935.083 119.518 915.584 119.551 897.356C119.711 872.249 128.575 852.546 143.953 843.517ZM169.964 977.584C189.329 983.237 226.356 984.795 248.05 970.733C257.347 964.673 262.75 956.428 264.145 946.113C264.494 943.477 264.728 940.84 264.733 938.089C264.78 912.064 248.095 882.456 222.221 862.919C200.354 846.371 176.06 840.136 155.643 845.831C152.661 846.628 149.907 847.884 147.382 849.37C134.069 857.257 126.471 874.669 126.43 897.368C126.485 929.928 143.037 969.854 169.964 977.584Z" fill="#53BDB1"/>
    <path d="M134.866 459.478C131.51 460.472 127.942 460.934 124.242 461.004C100.875 461.347 77.0393 448.027 58.8984 424.606C37.771 397.292 28.7491 362.083 36.068 334.965C36.8447 332.088 37.8726 329.159 38.9515 326.481C43.8381 314.975 52.6054 307.13 65.1132 303.024C90.0987 294.924 126.382 304.361 147.944 317.305C160.402 324.823 169.611 339.54 173.815 358.724C177.662 376.149 177.121 396.19 172.371 413.789C165.719 437.999 152.058 454.737 134.866 459.478ZM144.441 323.247C127.199 312.775 91.836 301.687 67.2423 309.655C56.6935 313.101 49.3405 319.667 45.3237 329.27C44.3046 331.726 43.3961 334.212 42.6792 336.868C35.898 361.994 44.3508 394.912 64.2871 420.48C81.1262 442.124 102.978 454.434 124.174 454.217C127.261 454.219 130.246 453.718 133.069 452.937C147.97 448.765 159.816 433.912 165.73 411.997C174.104 380.533 168.45 337.683 144.441 323.247Z" fill="#53BDB1"/>
    <path d="M313.67 358.49C318.532 361.309 324.096 367.025 322.912 378.033C321.813 388.332 314.41 403.53 307.092 410.548C296.56 420.684 275.557 418.251 261.456 410.076C251.407 404.25 245.533 396.08 245.551 387.645C245.526 386.007 245.758 384.3 246.198 382.606C248.427 373.72 257.204 365.491 270.136 359.995C283.451 354.397 302.081 351.771 313.67 358.49ZM251.569 383.988C251.283 385.229 251.124 386.437 251.093 387.61C251.158 394.036 255.928 400.375 264.275 405.214C279.835 414.235 296.54 412.875 303.272 406.492C309.561 400.502 316.353 386.357 317.327 377.394C318.018 370.973 315.875 366.265 310.851 363.352C302.342 358.419 286.512 359.203 272.206 365.202C261.127 369.931 253.391 376.923 251.569 383.988Z" fill="#53BDB1"/>
    <path d="M194.006 60.7261C194.431 79.5286 186.487 98.2013 169.827 118.119C143.632 149.255 105.537 167.185 68.8193 184.545C66.5246 185.572 64.3445 186.6 62.1642 187.743C-18.0412 225.66 -83.2243 261.54 -140.411 313.485C-142.938 315.773 -145.808 318.29 -148.909 321.151C-153.502 325.27 -158.784 329.96 -164.411 335.109L-164.395 325.823C-160.49 322.276 -156.816 319.073 -153.486 316.098C-150.385 313.352 -147.514 310.721 -144.988 308.547C-87.1122 256.03 -21.4701 219.921 59.3091 181.661C61.4892 180.634 63.784 179.606 66.0789 178.464C102.223 161.447 139.514 143.859 164.79 113.868C180.301 95.3239 187.784 78.0262 187.356 61.058C186.938 38.8162 181.125 20.0039 170.602 6.68605C159.164 -7.77989 143.012 -15.0318 122.49 -14.6104C86.1465 -13.9884 53.2143 2.11689 21.3147 17.7654C-10.47 33.2995 -43.1727 49.2904 -80.2059 50.943C-111.506 52.2621 -140.389 48.0825 -163.875 39.0977L-163.862 31.7604C-140.95 40.9735 -112.067 45.3823 -80.5374 44.0637C-44.9948 42.5231 -12.8656 26.7604 18.2306 11.569C50.7038 -4.3078 84.3244 -20.7557 122.273 -21.4895C165.381 -22.4431 192.953 9.13415 194.006 60.7261Z" fill="#53BDB1"/>
  </g>
</svg>
